<svg xmlns="http://www.w3.org/2000/svg" viewBox="0 0 702.05 193.75"><defs><style>.cls-1{fill:#2e81c0;}.cls-2{fill:#19538c;}.cls-3,.cls-4{fill:#fff;}.cls-4{opacity:0.2;}.cls-5{fill:#23518b;}.cls-6{fill:#58a9d1;}.cls-7{fill:#18538c;}</style></defs><title>Asset 4</title><g id="Layer_2" data-name="Layer 2"><g id="Layer_1-2" data-name="Layer 1"><path class="cls-1" d="M0,130.8V47.11a19.51,19.51,0,0,1,9.76-16.9L82.24,2.12a23.49,23.49,0,0,1,19.52,0l72.48,28.09c7.57,3.62,9.76,9.93,9.76,16.9V130.8a19.52,19.52,0,0,1-9.76,16.91l-72.48,41.84a19.51,19.51,0,0,1-19.52,0L9.76,147.71A19.52,19.52,0,0,1,0,130.8Z"/><path class="cls-2" d="M184,126.9v5.49c0,6.61.21,9.54-8.51,14.59L101,190c-6.41,3.7-9.71,5.46-19.34-.8L9,147.29c-9.24-5-9-8.66-9-16.06v-3.49l91.85,50.43Z"/><path class="cls-3" d="M168.08,110.11a5.53,5.53,0,0,0-2.6-2.88c-1.86-1-4.31-.81-6.78.41a14.12,14.12,0,0,0-3.64,2.58l-9.77-5,11.42-18.46,2.88-1.5a1.83,1.83,0,0,0,.82-.93l3.68-9.19c.22-.53.12-1-.23-1.21L160.06,72a1.1,1.1,0,0,0-1.25.45l-6.69,7.66a1.65,1.65,0,0,0-.44,1.12l.1,3-11.39,18.48-8.88-4.53c.55-5.68-3.17-9-8.31-7.42a14.54,14.54,0,0,0-6.67,4.79c-.44.55-.53,1.27-.18,1.59a.54.54,0,0,0,.36.16l4.8.4c1.06.11,1.38,1.8.64,3.72s-2.26,3.47-3.33,3.39l-4.44-.3a1.58,1.58,0,0,0-1.37,1.09,1.29,1.29,0,0,0-.08.63c.65,5.16,5.33,7,10.46,4.18a15,15,0,0,0,3-2.27l8.08,4.13-3.08,5-.79-.4c-.87-.41-2.17.23-2.95,1.44l-1,1.56c-.73,1.16-.7,2.45.06,3l-11.3,18.34c-.76,1.2-.71,2.55.13,3l.06,0,3.67,1.87c.83.46,2.13-.14,2.89-1.35l.06-.09,11.31-18.37c.86.34,2.09-.32,2.8-1.49l1-1.55c.76-1.2.71-2.55-.13-3l-.06,0-.8-.4,3.06-5L150,120.13c-.53,5.66,3.21,9,8.35,7.35a15.41,15.41,0,0,0,8-6.77c.34-.62.26-1.27-.18-1.45a.73.73,0,0,0-.39,0L160,120.44a1.14,1.14,0,0,1-1.28-.62,3.69,3.69,0,0,1-.26-2.44c.33-1.86,1.61-3.7,2.77-3.95l5.78-1.2a1,1,0,0,0,.28-.13,1.79,1.79,0,0,0,1-1.55A.8.8,0,0,0,168.08,110.11Z"/><path class="cls-3" d="M25.54,77.36h0a1.54,1.54,0,0,0-1.33-.18,1,1,0,0,0-.53,1l.85,28a3.91,3.91,0,0,0,2,2.89,48.69,48.69,0,0,1,17.31,15.3L42.93,95.1A2.69,2.69,0,0,0,42.64,94C38.2,85.12,30,79.76,25.54,77.36Z"/><path class="cls-3" d="M65.6,128.1l-.85-28a3.12,3.12,0,0,0-.6-1.62,4,4,0,0,0-1.36-1.26h0c-4.48-2.38-12.59-5.72-16.63-1.35a1.08,1.08,0,0,0-.24.8L46.8,126c5-2.49,12.46.61,16.93,3,1.06.57,1.9.19,1.87-.83Z"/><path class="cls-3" d="M69.27,107.05l-1.4-.74.71,23.38c.08,2.61-2,3.58-4.75,2.14-3.79-2-10-4.63-14.32-2.93,7.6,2.27,15.7,7.76,20.33,11.24a2.08,2.08,0,0,0,1.62.51,1,1,0,0,0,.68-1.07l-.9-29.64a3.9,3.9,0,0,0-2-2.89Z"/><path class="cls-3" d="M21.55,104.57l-.71-23.38-1.39-.74c-1.06-.56-1.9-.19-1.87.84l.9,29.64a3.34,3.34,0,0,0,.77,1.84A3.57,3.57,0,0,0,20.88,114,67.23,67.23,0,0,1,41.2,124.47,43.12,43.12,0,0,0,26.59,112c-2.7-1.45-5-4.76-5-7.38Z"/><path class="cls-3" d="M126.33,28.13l-2.6.73a2.9,2.9,0,0,1-2.13-.23,10.72,10.72,0,0,0-1.35-.86.8.8,0,0,1-.26-1.28L121.41,25c1-1.06.48-2.19-1.12-2.51l-3.72-.76a5.63,5.63,0,0,0-2.59.14A4.76,4.76,0,0,0,111.86,23l-1.41,1.51a2.73,2.73,0,0,1-1.21.63,3.92,3.92,0,0,1-1,.16c-.75,0-1.51.05-2.27.12s-1.65-.19-1.82-.57l-.62-1.39c-.43-1-2.28-1.36-4.12-.84l-4.25,1.21c-1.84.51-3,1.73-2.54,2.72L93.27,28c.17.37-.28,1-1,1.35S91,30,90.44,30.37a3.5,3.5,0,0,1-.87.36,3.24,3.24,0,0,1-1.44.12l-2.29-.46a5.63,5.63,0,0,0-2.59.14,4.63,4.63,0,0,0-2.12,1.19l-2.29,2.45a1.41,1.41,0,0,0-.42,1.54,2,2,0,0,0,1.53,1l2.3.47a.91.91,0,0,1,.81,1.12,8.53,8.53,0,0,0-.38,1.35,2.11,2.11,0,0,1-1.46,1.25l-2.6.74c-1.84.51-3,1.73-2.54,2.72l1,2.27c.44,1,2.28,1.36,4.12.84l2.6-.74a2.82,2.82,0,0,1,2.12.24,13.76,13.76,0,0,0,1.36.86.8.8,0,0,1,.25,1.28L86.13,50.6c-1,1.06-.49,2.19,1.12,2.52l3.72.76a5.63,5.63,0,0,0,2.59-.14,4.76,4.76,0,0,0,2.12-1.19L97.09,51a2.72,2.72,0,0,1,1.22-.63,3.78,3.78,0,0,1,1-.16c.75,0,1.51-.06,2.27-.12s1.65.19,1.82.57l.62,1.39c.43,1,2.28,1.35,4.12.84l4.25-1.21c1.83-.52,3-1.74,2.54-2.72l-.62-1.39c-.17-.38.27-1,1-1.35s1.26-.68,1.86-1a3.5,3.5,0,0,1,.87-.36,3.24,3.24,0,0,1,1.44-.12l2.29.46a5.63,5.63,0,0,0,2.59-.14,4.63,4.63,0,0,0,2.12-1.19l2.29-2.46c1-1.06.49-2.19-1.12-2.51l-2.29-.47a.91.91,0,0,1-.81-1.12,8.84,8.84,0,0,0,.38-1.35,2.07,2.07,0,0,1,1.46-1.25l2.6-.74c1.84-.52,3-1.74,2.54-2.72l-1-2.27c-.44-1-2.29-1.36-4.12-.84ZM113.52,35c1.28,2.88-2.06,6.45-7.44,8S95.29,43.42,94,40.55s2.06-6.46,7.44-8,10.8-.41,12.07,2.46Z"/><path class="cls-3" d="M77.24,29.15a.5.5,0,0,1,.29-.28l1.3-.36c1.23-.35,2-1.16,1.7-1.82L80,25.56c-.29-.66-1.52-.91-2.74-.56L76,25.36a.66.66,0,0,1-.45-.07,7.15,7.15,0,0,0-.71-.45.2.2,0,0,1-.09-.27l.71-.76c.66-.7.33-1.46-.74-1.67l-1.86-.38a3.81,3.81,0,0,0-1.73.09,3.06,3.06,0,0,0-1.41.8L69,23.4a.55.55,0,0,1-.25.12,1.11,1.11,0,0,1-.23,0c-.39,0-.8,0-1.2.06-.19,0-.39-.05-.41-.11l-.31-.69c-.29-.66-1.52-.91-2.75-.56l-2.12.6c-1.23.35-2,1.16-1.7,1.81l.31.7c0,.05-.07.21-.23.29-.34.18-.68.36-1,.55l-.2.09a.69.69,0,0,1-.29,0l-1.15-.23a3.77,3.77,0,0,0-1.72.1,3.09,3.09,0,0,0-1.42.79l-1.14,1.23c-.66.7-.33,1.46.74,1.67l1.15.24a.22.22,0,0,1,.15.25,4,4,0,0,0-.2.71.52.52,0,0,1-.3.28l-1.3.37c-1.22.35-2,1.16-1.69,1.81l.5,1.14c.29.65,1.52.91,2.75.56l1.3-.37a.66.66,0,0,1,.45.07,6.3,6.3,0,0,0,.72.45.19.19,0,0,1,.08.27l-.71.76a.92.92,0,0,0-.27,1,1.34,1.34,0,0,0,1,.66l1.86.38a3.77,3.77,0,0,0,1.72-.1,3.13,3.13,0,0,0,1.42-.79l.7-.76a.85.85,0,0,1,.26-.11.64.64,0,0,1,.22,0c.4,0,.8,0,1.2-.07a.62.62,0,0,1,.42.11l.31.7c.29.65,1.52.9,2.74.56l2.13-.6c1.22-.35,2-1.16,1.69-1.82l-.31-.69c0-.06.08-.21.24-.3.34-.17.67-.36,1-.55a.84.84,0,0,1,.21-.08.75.75,0,0,1,.29,0l1.14.24a3.82,3.82,0,0,0,1.73-.1,3.14,3.14,0,0,0,1.41-.79L79.08,32c.66-.71.32-1.46-.75-1.68l-1.14-.23a.21.21,0,0,1-.15-.25,4.84,4.84,0,0,0,.2-.72Zm-6.79-.25c.57,1.27-.91,2.86-3.3,3.53s-4.78.19-5.35-1.09.92-2.86,3.3-3.53,4.78-.18,5.35,1.09Z"/><path class="cls-4" d="M182.05,37.61l.15-.08q-.36-.63-.78-1.23h0a7.37,7.37,0,0,0-2.33-2.79c2.16,2.41.14,3.85-.47,4.21l-81,40.94c-5.59,2.41-11.09.28-12.79-.51L5.46,38.58h0A2.61,2.61,0,0,1,5,34.16S2.86,35.65,2.48,37.1L2,36.86l-.39.62-.34.65.4.2c-1,1.15-1.1,4-1.1,4,.93-3.89,4.55-2.31,4.56-2.31l78.8,39.28A15.6,15.6,0,0,1,91.13,91.4l0-1v99.65c0,.7-.33,3.12-3.68,2.32,0,0,3.06,2.13,4.34,1.09h.52c1.41.67,4.42-1.22,4.42-1.22-3.59,1.12-4.3-1.94-4.3-1.94V91.48a15.85,15.85,0,0,1,7.22-12.21l79-39.94h0s4-1.74,4.79,2.19C183.43,41.52,183.23,38.66,182.05,37.61Z"/><path class="cls-5" d="M264.57,158.11H262l-4.45-14.77c-.21-.65-.45-1.48-.71-2.48a14.82,14.82,0,0,1-.41-1.79,34.46,34.46,0,0,1-1,4.36l-4.32,14.68h-2.53l-5.87-22.06h2.71l3.49,13.63a50.81,50.81,0,0,1,1.05,5.19,39.09,39.09,0,0,1,1.21-5.4l3.95-13.42h2.72L262,149.59a41.39,41.39,0,0,1,1.22,5.28,43.55,43.55,0,0,1,1.09-5.22l3.47-13.6h2.71Z"/><path class="cls-5" d="M287.82,149.83a9.1,9.1,0,0,1-2,6.31,7.15,7.15,0,0,1-5.63,2.27,7.41,7.41,0,0,1-3.94-1,6.85,6.85,0,0,1-2.65-3,10.27,10.27,0,0,1-.94-4.55,9.13,9.13,0,0,1,2-6.3,7.14,7.14,0,0,1,5.62-2.26,7,7,0,0,1,5.51,2.31A9.05,9.05,0,0,1,287.82,149.83Zm-12.6,0a7.83,7.83,0,0,0,1.27,4.83,5,5,0,0,0,7.46,0,7.79,7.79,0,0,0,1.27-4.83A7.68,7.68,0,0,0,284,145a4.5,4.5,0,0,0-3.77-1.64,4.43,4.43,0,0,0-3.71,1.61A7.84,7.84,0,0,0,275.22,149.83Z"/><path class="cls-5" d="M299.75,141.27a9.83,9.83,0,0,1,2,.18l-.35,2.33a8.6,8.6,0,0,0-1.81-.23,4.39,4.39,0,0,0-3.43,1.63,6,6,0,0,0-1.43,4.06v8.87h-2.5V141.57h2.06l.29,3.07h.12a7.33,7.33,0,0,1,2.22-2.49A5,5,0,0,1,299.75,141.27Z"/><path class="cls-5" d="M316.08,155.89h-.14a5.87,5.87,0,0,1-5.19,2.52,6.15,6.15,0,0,1-5-2.21,9.74,9.74,0,0,1-1.81-6.31,9.94,9.94,0,0,1,1.81-6.35,6.1,6.1,0,0,1,5-2.27,6,6,0,0,1,5.16,2.45h.2l-.11-1.2-.06-1.16v-6.73h2.51v23.48h-2Zm-5,.43a4.57,4.57,0,0,0,3.72-1.4,7,7,0,0,0,1.15-4.5v-.53q0-3.52-1.17-5a4.43,4.43,0,0,0-3.73-1.5,3.83,3.83,0,0,0-3.37,1.71,8.53,8.53,0,0,0-1.17,4.84,8.1,8.1,0,0,0,1.16,4.78A3.92,3.92,0,0,0,311.07,156.32Z"/><path class="cls-5" d="M338.12,142.48a6.18,6.18,0,0,1-2.28,5.15,10.39,10.39,0,0,1-6.54,1.81h-2.6v8.67h-2.56V136.05h5.71Q338.13,136.05,338.12,142.48Zm-11.42,4.75H329a8.59,8.59,0,0,0,4.93-1.1,4,4,0,0,0,1.53-3.53,3.79,3.79,0,0,0-1.44-3.26,7.49,7.49,0,0,0-4.46-1.07H326.7Z"/><path class="cls-5" d="M349.91,141.27a10,10,0,0,1,2,.18l-.35,2.33a8.68,8.68,0,0,0-1.81-.23,4.41,4.41,0,0,0-3.44,1.63,6,6,0,0,0-1.42,4.06v8.87h-2.51V141.57h2.07l.29,3.07h.12a7.13,7.13,0,0,1,2.22-2.49A4.92,4.92,0,0,1,349.91,141.27Z"/><path class="cls-5" d="M362,158.41a7.58,7.58,0,0,1-5.78-2.23,8.62,8.62,0,0,1-2.12-6.2,9.54,9.54,0,0,1,2-6.35,6.53,6.53,0,0,1,5.28-2.36,6.2,6.2,0,0,1,4.92,2,7.81,7.81,0,0,1,1.81,5.39v1.59H356.65a6.56,6.56,0,0,0,1.47,4.42,5.11,5.11,0,0,0,3.93,1.51,13.4,13.4,0,0,0,5.28-1.12v2.23a12.84,12.84,0,0,1-2.51.82A13.81,13.81,0,0,1,362,158.41Zm-.67-15a4.08,4.08,0,0,0-3.18,1.3,6,6,0,0,0-1.4,3.59h8.65a5.48,5.48,0,0,0-1.06-3.63A3.71,3.71,0,0,0,361.29,143.37Z"/><path class="cls-5" d="M383,153.6a4.13,4.13,0,0,1-1.72,3.56,8,8,0,0,1-4.83,1.25,10.45,10.45,0,0,1-5.13-1v-2.32a12.61,12.61,0,0,0,2.56.95,10.76,10.76,0,0,0,2.63.35,5.93,5.93,0,0,0,3-.63,2.15,2.15,0,0,0,.22-3.56,13,13,0,0,0-3.27-1.62,19.07,19.07,0,0,1-3.28-1.5,4.57,4.57,0,0,1-1.45-1.46,3.86,3.86,0,0,1-.47-2,3.73,3.73,0,0,1,1.64-3.19,7.68,7.68,0,0,1,4.52-1.17,13.1,13.1,0,0,1,5.22,1.09l-.89,2a11.91,11.91,0,0,0-4.52-1,5.2,5.2,0,0,0-2.68.56,1.73,1.73,0,0,0-.91,1.54,1.91,1.91,0,0,0,.34,1.13,3.35,3.35,0,0,0,1.1.89,24.44,24.44,0,0,0,2.89,1.22,10.78,10.78,0,0,1,4,2.16A3.78,3.78,0,0,1,383,153.6Z"/><path class="cls-5" d="M397.72,153.6a4.13,4.13,0,0,1-1.72,3.56,8,8,0,0,1-4.82,1.25,10.4,10.4,0,0,1-5.13-1v-2.32a12.3,12.3,0,0,0,2.55.95,10.77,10.77,0,0,0,2.64.35,5.92,5.92,0,0,0,3-.63,2.15,2.15,0,0,0,.22-3.56,12.74,12.74,0,0,0-3.26-1.62,18.89,18.89,0,0,1-3.29-1.5,4.53,4.53,0,0,1-1.44-1.46,3.76,3.76,0,0,1-.48-2,3.71,3.71,0,0,1,1.65-3.19,7.64,7.64,0,0,1,4.51-1.17,13.1,13.1,0,0,1,5.22,1.09l-.89,2a11.91,11.91,0,0,0-4.51-1,5.21,5.21,0,0,0-2.69.56,1.73,1.73,0,0,0-.91,1.54,1.91,1.91,0,0,0,.34,1.13,3.46,3.46,0,0,0,1.1.89,24.06,24.06,0,0,0,2.9,1.22,10.81,10.81,0,0,1,4,2.16A3.78,3.78,0,0,1,397.72,153.6Z"/><path class="cls-5" d="M410.2,158.11V136.05h2.57v19.74h9.73v2.32Z"/><path class="cls-5" d="M440.14,149.83a9.1,9.1,0,0,1-2,6.31,7.15,7.15,0,0,1-5.63,2.27,7.38,7.38,0,0,1-3.93-1,6.81,6.81,0,0,1-2.66-3,10.41,10.41,0,0,1-.94-4.55,9.09,9.09,0,0,1,2-6.3,7.12,7.12,0,0,1,5.61-2.26,7,7,0,0,1,5.51,2.31A9.05,9.05,0,0,1,440.14,149.83Zm-12.6,0a7.83,7.83,0,0,0,1.27,4.83,5,5,0,0,0,7.46,0,7.79,7.79,0,0,0,1.27-4.83,7.68,7.68,0,0,0-1.27-4.79,4.5,4.5,0,0,0-3.77-1.64,4.43,4.43,0,0,0-3.71,1.61A7.84,7.84,0,0,0,427.54,149.83Z"/><path class="cls-5" d="M451.14,158.41a7,7,0,0,1-5.56-2.21,9.1,9.1,0,0,1-2-6.25,9.36,9.36,0,0,1,2-6.41,7.2,7.2,0,0,1,5.7-2.27,11.41,11.41,0,0,1,2.38.26,7.91,7.91,0,0,1,1.87.6l-.77,2.13a12.43,12.43,0,0,0-1.81-.55,7.79,7.79,0,0,0-1.73-.22q-5,0-5,6.43a7.67,7.67,0,0,0,1.22,4.68,4.32,4.32,0,0,0,3.65,1.63,11.21,11.21,0,0,0,4.24-.89v2.21A9,9,0,0,1,451.14,158.41Z"/><path class="cls-5" d="M469.41,158.11l-.5-2.35h-.12a6.87,6.87,0,0,1-2.46,2.1,7.49,7.49,0,0,1-3.07.55,5.56,5.56,0,0,1-3.86-1.26,4.64,4.64,0,0,1-1.4-3.61q0-5,8-5.25l2.8-.09v-1a4.22,4.22,0,0,0-.83-2.87,3.46,3.46,0,0,0-2.68-.93,10.85,10.85,0,0,0-4.68,1.27l-.77-1.92a11.94,11.94,0,0,1,2.68-1,11.64,11.64,0,0,1,2.92-.38,6.27,6.27,0,0,1,4.38,1.32,5.45,5.45,0,0,1,1.43,4.2v11.29Zm-5.66-1.76a5.08,5.08,0,0,0,3.68-1.29,4.73,4.73,0,0,0,1.33-3.59V150l-2.5.1A9.1,9.1,0,0,0,462,151a2.8,2.8,0,0,0-1.32,2.56,2.58,2.58,0,0,0,.82,2.07A3.44,3.44,0,0,0,463.75,156.35Z"/><path class="cls-5" d="M478.93,158.11h-2.5V134.63h2.5Z"/><path class="cls-5" d="M510.26,146.87c0,3.64-1,6.43-3,8.35s-4.82,2.89-8.53,2.89h-6.11V136.05h6.76c3.43,0,6.09.95,8,2.85S510.26,143.46,510.26,146.87Zm-2.72.09c0-2.88-.72-5-2.16-6.5s-3.59-2.19-6.44-2.19h-3.73v17.62h3.13q4.57,0,6.89-2.25C506.77,152.13,507.54,149.91,507.54,147Z"/><path class="cls-5" d="M521.78,158.41a7.58,7.58,0,0,1-5.78-2.23,8.62,8.62,0,0,1-2.12-6.2,9.54,9.54,0,0,1,2-6.35,6.53,6.53,0,0,1,5.29-2.36,6.23,6.23,0,0,1,4.92,2,7.86,7.86,0,0,1,1.81,5.39v1.59h-11.4a6.56,6.56,0,0,0,1.47,4.42,5.15,5.15,0,0,0,3.94,1.51,13.4,13.4,0,0,0,5.28-1.12v2.23a13.14,13.14,0,0,1-2.52.82A13.81,13.81,0,0,1,521.78,158.41Zm-.67-15a4.08,4.08,0,0,0-3.18,1.3,6,6,0,0,0-1.4,3.59h8.65a5.48,5.48,0,0,0-1.06-3.63A3.71,3.71,0,0,0,521.11,143.37Z"/><path class="cls-5" d="M535.76,158.11l-6.28-16.54h2.69l3.56,9.81c.8,2.3,1.28,3.78,1.42,4.47h.12a32.3,32.3,0,0,1,1.05-3.31q.87-2.52,4-11H545l-6.27,16.54Z"/><path class="cls-5" d="M554.6,158.41a7.58,7.58,0,0,1-5.78-2.23,8.62,8.62,0,0,1-2.12-6.2,9.54,9.54,0,0,1,2-6.35,6.53,6.53,0,0,1,5.28-2.36,6.2,6.2,0,0,1,4.92,2,7.81,7.81,0,0,1,1.81,5.39v1.59H549.29a6.56,6.56,0,0,0,1.47,4.42,5.11,5.11,0,0,0,3.93,1.51,13.4,13.4,0,0,0,5.28-1.12v2.23a12.84,12.84,0,0,1-2.51.82A13.81,13.81,0,0,1,554.6,158.41Zm-.67-15a4.08,4.08,0,0,0-3.18,1.3,6,6,0,0,0-1.4,3.59H558a5.48,5.48,0,0,0-1.06-3.63A3.71,3.71,0,0,0,553.93,143.37Z"/><path class="cls-5" d="M567.46,158.11H565V134.63h2.51Z"/><path class="cls-5" d="M587.05,149.83a9.1,9.1,0,0,1-2,6.31,7.17,7.17,0,0,1-5.63,2.27,7.41,7.41,0,0,1-3.94-1,6.85,6.85,0,0,1-2.65-3,10.27,10.27,0,0,1-.94-4.55,9.09,9.09,0,0,1,2-6.3,7.14,7.14,0,0,1,5.62-2.26,7,7,0,0,1,5.51,2.31A9.1,9.1,0,0,1,587.05,149.83Zm-12.6,0a7.9,7.9,0,0,0,1.26,4.83,5,5,0,0,0,7.46,0,7.79,7.79,0,0,0,1.28-4.83,7.68,7.68,0,0,0-1.28-4.79,4.48,4.48,0,0,0-3.76-1.64A4.41,4.41,0,0,0,575.7,145,7.77,7.77,0,0,0,574.45,149.83Z"/><path class="cls-5" d="M599.13,158.41a7.26,7.26,0,0,1-3-.59,5.52,5.52,0,0,1-2.24-1.84h-.18a22.49,22.49,0,0,1,.18,2.75v6.81h-2.5v-24h2l.35,2.27h.12a5.7,5.7,0,0,1,2.25-2,6.69,6.69,0,0,1,2.94-.61,6.12,6.12,0,0,1,5.08,2.25,12,12,0,0,1,0,12.64A6.14,6.14,0,0,1,599.13,158.41Zm-.36-15a4.47,4.47,0,0,0-3.67,1.4,7.28,7.28,0,0,0-1.16,4.47v.56q0,3.48,1.16,5a4.41,4.41,0,0,0,3.73,1.51,3.88,3.88,0,0,0,3.36-1.74,8.23,8.23,0,0,0,1.21-4.78,7.94,7.94,0,0,0-1.21-4.75A4,4,0,0,0,598.77,143.4Z"/><path class="cls-5" d="M631.45,158.11V147.35a4.49,4.49,0,0,0-.84-3,3.28,3.28,0,0,0-2.63-1,4.24,4.24,0,0,0-3.45,1.34,6.38,6.38,0,0,0-1.12,4.14v9.23H620.9V147.35a4.49,4.49,0,0,0-.84-3,3.28,3.28,0,0,0-2.64-1,4.1,4.1,0,0,0-3.45,1.41c-.73.94-1.09,2.48-1.09,4.63v8.67h-2.51V141.57h2l.41,2.27h.12a4.87,4.87,0,0,1,2-1.89,6.13,6.13,0,0,1,2.89-.68q3.87,0,5.07,2.81H623a5.17,5.17,0,0,1,2.14-2.05,6.55,6.55,0,0,1,3.2-.76,5.6,5.6,0,0,1,4.2,1.44,6.45,6.45,0,0,1,1.4,4.61v10.79Z"/><path class="cls-5" d="M646.1,158.41a7.58,7.58,0,0,1-5.78-2.23,8.62,8.62,0,0,1-2.12-6.2,9.54,9.54,0,0,1,2-6.35,6.53,6.53,0,0,1,5.28-2.36,6.2,6.2,0,0,1,4.92,2,7.81,7.81,0,0,1,1.81,5.39v1.59H640.79a6.56,6.56,0,0,0,1.47,4.42,5.11,5.11,0,0,0,3.93,1.51,13.4,13.4,0,0,0,5.28-1.12v2.23a12.84,12.84,0,0,1-2.51.82A13.81,13.81,0,0,1,646.1,158.41Zm-.68-15a4.07,4.07,0,0,0-3.17,1.3,6,6,0,0,0-1.4,3.59h8.65a5.48,5.48,0,0,0-1.06-3.63A3.71,3.71,0,0,0,645.42,143.37Z"/><path class="cls-5" d="M667.77,158.11v-10.7a4.32,4.32,0,0,0-.92-3,3.71,3.71,0,0,0-2.88-1,4.76,4.76,0,0,0-3.8,1.4c-.81.94-1.21,2.48-1.21,4.64v8.67h-2.51V141.57h2l.41,2.27H659a5.07,5.07,0,0,1,2.16-1.9,7.08,7.08,0,0,1,3.09-.67,6.3,6.3,0,0,1,4.5,1.44q1.5,1.44,1.5,4.61v10.79Z"/><path class="cls-5" d="M680.76,156.35a8.74,8.74,0,0,0,1.28-.1,9.54,9.54,0,0,0,1-.21V158a4.61,4.61,0,0,1-1.2.32,8.61,8.61,0,0,1-1.43.13q-4.8,0-4.8-5v-9.84h-2.37v-1.21l2.37-1,1.06-3.53h1.45v3.83h4.79v2h-4.79v9.73a3.33,3.33,0,0,0,.71,2.3A2.47,2.47,0,0,0,680.76,156.35Z"/><path class="cls-2" d="M316.73,87.31c1.6-3.86,3.77-7.26,4.79-10.85.31-1.1.9-1.58,2.37-1.48a22.43,22.43,0,0,0,8.43-.94c7.61-2,12.3-7.67,11.93-14.39-.39-7-5.54-11.91-14.31-13.46a101.36,101.36,0,0,0-13.4-1c-2.06,0-2.68.39-2.67,2.19.09,16.57.06,33.14.06,49.71,0,6.14-.05,12.28,0,18.42,0,1.34-.35,1.79-2.05,1.74-4.28-.11-7.48-.09-11.76,0-1.7,0-2.33-.29-2.32-1.81q.07-40.83,0-81.67c0-.84-.1-1.7,1.4-1.67,12.18.18,25.13-1,37.08,1.69,12.63,2.79,21.83,8.85,24.73,20,4,15.42-7.39,29.89-26,33.12A55.39,55.39,0,0,1,316.73,87.31Z"/><path class="cls-1" d="M415.31,104.18c-7.1.07-23.08,0-30.18,0-2,0-2.57.19-2.75-.57v-70a1.5,1.5,0,0,0-1.5-1.49H368.93a1.5,1.5,0,0,0-1.5,1.49v82.18a1.51,1.51,0,0,0,1.5,1.5h12c7.52,0,23.89,0,31.39,0,1.43,0,2.09-.35,2.4-1.82a94.18,94.18,0,0,1,2.28-9.23C417.54,104.43,417,104.16,415.31,104.18Z"/><rect class="cls-1" x="421.62" y="61.59" width="14.31" height="55.69" rx="3.37" ry="3.37"/><path class="cls-6" d="M686.11,89.48,701.18,74.4a3,3,0,0,0,0-4.19l-7.68-7.68a3,3,0,0,0-4.19,0L674.23,77.61,659.15,62.53a3,3,0,0,0-4.19,0l-7.68,7.68a3,3,0,0,0,0,4.19l15.08,15.08-15.08,15.08a3,3,0,0,0,0,4.19l7.68,7.68a3,3,0,0,0,4.19,0l15.08-15.07,15.08,15.07a3,3,0,0,0,4.19,0l7.68-7.68a3,3,0,0,0,0-4.19Z"/><path class="cls-1" d="M491,74a34.53,34.53,0,0,0-11.38-9.17,32.84,32.84,0,0,0-7.53-2.41,32.37,32.37,0,0,0-13.93,0c1.43,3.86,3.38,7.27,4.28,10.85a1.72,1.72,0,0,0,2.13,1.49,9.28,9.28,0,0,1,5.07.64c6.75,2.14,11,7.68,10.67,14.39-.35,7-5,11.91-12.8,13.47a60.77,60.77,0,0,1-10.44,1c-1.38,0-2.05-.21-2.28-1.1V32.93a.87.87,0,0,0-.87-.87H441.61a.87.87,0,0,0-.87.87v83.5a.87.87,0,0,0,.87.87H454c6.47,0,12.93-.2,19.27-1.77,11.29-2.8,19.51-8.86,22.1-20A26.13,26.13,0,0,0,491,74Z"/><rect class="cls-1" x="421.62" y="41.57" width="14.31" height="13.77" rx="3.37" ry="3.37"/><path class="cls-7" d="M294.1,32.24v0h-5.64c-2.42,0-4.72,0-7,0A3.72,3.72,0,0,0,277.63,35c-1.92,5.64-3.92,11.35-5.84,16.88L264.5,74.77,251.58,46.13c-1.29-2.94-1.7-2.87-3,0L235.68,74.78l-1.39-4.09c-4.13-11.81-7-24-11.15-36A3.12,3.12,0,0,0,220,32.19c-2.47,0-5.7,0-8.3,0h-5.66L231,114.3h0c.84,2.78,2.09,3,2.37,3h4.08a2.66,2.66,0,0,0,2.37-2.06,5.18,5.18,0,0,0,.25-.94l10-35.18,10,35.18a5.18,5.18,0,0,0,.25.94,2.67,2.67,0,0,0,2.37,2.06h4.09c.27,0,1.52-.22,2.36-3h0l24.93-82.09Z"/><path class="cls-6" d="M582.83,53.86c-2.52-11.17-10.55-17.23-21.56-20-6.41-1.63-12.93-1.82-19.47-1.77h-.58l-5.33.07c-1.88,0-3.75,0-5.63-.08a3.69,3.69,0,0,0-1.19.12c-.71.12-.8.62-.81,1.21a3.43,3.43,0,0,0,0,.48q0,20.4,0,40.8t0,40.8a3.64,3.64,0,0,0,0,.48c0,.58.1,1.09.81,1.21a3.46,3.46,0,0,0,1.19.11c1.88,0,3.75-.07,5.63-.08l5.33.08h.58c6.54,0,13.06-.15,19.47-1.77,11-2.8,19-8.86,21.56-20a26.59,26.59,0,0,0-4.24-21.53C582.59,69.36,584.85,62.8,582.83,53.86ZM568.16,89.69c-.34,7-4.83,11.91-12.48,13.46a57.92,57.92,0,0,1-10.19.95c-1.51,0-2.13-.26-2.29-1.44,0-1.85,0-3.7,0-5.55q0-9.3,0-18.61V70.84q0-9.32,0-18.62c0-1.85,0-3.7,0-5.55.16-1.17.78-1.47,2.29-1.44a58.9,58.9,0,0,1,10.19,1c7.65,1.55,12.14,6.42,12.48,13.46a14.43,14.43,0,0,1-.66,5.12,31.61,31.61,0,0,0-7.36-2.41,30.79,30.79,0,0,0-13.58,0c1.39,3.86,3.29,7.27,4.17,10.85a1.69,1.69,0,0,0,2.08,1.49,8.84,8.84,0,0,1,4.94.64C564.34,77.44,568.48,83,568.16,89.69Z"/><path class="cls-6" d="M615.75,61.59a27.85,27.85,0,1,0,27.84,27.84A27.85,27.85,0,0,0,615.75,61.59Zm0,41.22a13.38,13.38,0,1,1,13.37-13.38A13.38,13.38,0,0,1,615.75,102.81Z"/></g></g></svg>