<svg xmlns="http://www.w3.org/2000/svg" viewBox="0 0 564 449.44"><defs><style>.cls-1{fill:#2e81c0;}.cls-2{fill:#19538c;}.cls-3,.cls-4{fill:#fff;}.cls-4{opacity:0.2;}.cls-5{fill:#23518b;}.cls-6{fill:#58a9d1;}.cls-7{fill:#18538c;}</style></defs><title>Asset 3</title><g id="Layer_2" data-name="Layer 2"><g id="Layer_1-2" data-name="Layer 1"><path class="cls-1" d="M150.85,186.47V67.16a27.83,27.83,0,0,1,13.91-24.1L268.09,3c10.42-4.34,19.13-3.73,27.83,0l103.32,40c10.79,5.17,13.92,14.16,13.92,24.1V186.47a27.85,27.85,0,0,1-13.92,24.11L295.92,270.23a27.84,27.84,0,0,1-27.83,0L164.76,210.58A27.84,27.84,0,0,1,150.85,186.47Z"/><path class="cls-2" d="M413.16,180.91v7.82c0,9.44.3,13.61-12.13,20.8L294.8,270.88c-9.14,5.28-13.84,7.79-27.57-1.13L163.68,210c-13.18-7.11-12.83-12.34-12.83-22.9v-5L281.79,254Z"/><path class="cls-3" d="M390.47,157a7.87,7.87,0,0,0-3.72-4.11c-2.65-1.37-6.13-1.16-9.66.58a20.87,20.87,0,0,0-5.19,3.67L358,150l16.28-26.31,4.11-2.13a2.58,2.58,0,0,0,1.16-1.33l5.26-13.11c.31-.76.17-1.47-.33-1.72L379,102.64a1.6,1.6,0,0,0-1.79.64l-9.53,10.93a2.4,2.4,0,0,0-.63,1.59l.14,4.3L351,146.45,338.33,140c.78-8.09-4.52-12.82-11.84-10.57a20.55,20.55,0,0,0-9.52,6.82,1.81,1.81,0,0,0-.26,2.28.88.88,0,0,0,.53.22l6.84.57c1.5.15,1.95,2.56.91,5.3s-3.23,5-4.75,4.83L313.9,149a2.22,2.22,0,0,0-1.94,1.56,1.82,1.82,0,0,0-.12.9c.93,7.35,7.6,10,14.91,5.95a21,21,0,0,0,4.33-3.23l11.52,5.88-4.38,7.13-1.13-.56c-1.25-.59-3.1.32-4.21,2.05l-1.36,2.22c-1,1.65-1,3.5.1,4.2l-16.11,26.16c-1.09,1.71-1,3.63.17,4.29l.1,0,5.23,2.67c1.19.65,3-.21,4.12-1.92l.09-.14L341.34,180c1.23.49,3-.45,4-2.12l1.36-2.21c1.09-1.72,1-3.64-.17-4.29l-.1-.05-1.13-.58,4.35-7.18,15,7.66c-.76,8.08,4.57,12.78,11.9,10.49,4.34-1.35,8.62-5,11.47-9.66.5-.88.39-1.8-.25-2.06a.92.92,0,0,0-.55-.05l-8.34,1.73a1.63,1.63,0,0,1-1.82-.88,5.31,5.31,0,0,1-.36-3.48c.46-2.65,2.29-5.28,4-5.63L388.9,160a1.75,1.75,0,0,0,.39-.19,2.5,2.5,0,0,0,1.38-2.2A1.12,1.12,0,0,0,390.47,157Z"/><path class="cls-3" d="M187.26,110.28h0a2.22,2.22,0,0,0-1.89-.25,1.41,1.41,0,0,0-.75,1.46l1.2,39.86a5.57,5.57,0,0,0,2.82,4.12c6.38,3.42,17.09,10.41,24.68,21.82l-1.26-41.71a3.79,3.79,0,0,0-.42-1.55c-6.33-12.68-18-20.32-24.37-23.75Z"/><path class="cls-3" d="M244.37,182.61l-1.21-39.86a4.56,4.56,0,0,0-.86-2.32,5.66,5.66,0,0,0-1.94-1.79h0c-6.39-3.39-18-8.16-23.72-1.93a1.57,1.57,0,0,0-.33,1.14l1.26,41.72c7.14-3.55,17.77.86,24.15,4.25,1.51.8,2.7.27,2.66-1.2Z"/><path class="cls-3" d="M249.59,152.61l-2-1.06,1,33.33c.11,3.73-2.93,5.11-6.78,3.06-5.4-2.87-14.28-6.6-20.42-4.17,10.84,3.23,22.39,11.06,29,16a2.91,2.91,0,0,0,2.3.73,1.37,1.37,0,0,0,1-1.53l-1.28-42.25a5.55,5.55,0,0,0-2.82-4.12Z"/><path class="cls-3" d="M181.56,149.08l-1-33.33-2-1.06c-1.51-.8-2.7-.27-2.66,1.2l1.28,42.25a4.75,4.75,0,0,0,1.09,2.62,5.1,5.1,0,0,0,2.34,1.76,96.05,96.05,0,0,1,29,14.93c-6.48-9.17-15.43-15-20.83-17.86-3.85-2.06-7.07-6.78-7.19-10.51Z"/><path class="cls-3" d="M330.94,40.1l-3.71,1a4,4,0,0,1-3-.34,21.46,21.46,0,0,0-1.94-1.23,1.13,1.13,0,0,1-.36-1.82l2-2.16c1.41-1.51.7-3.12-1.59-3.58L317,30.93a8.08,8.08,0,0,0-3.69.21,6.62,6.62,0,0,0-3,1.69l-2,2.16a4,4,0,0,1-1.73.9,5.82,5.82,0,0,1-1.37.22c-1.07,0-2.16.08-3.25.17s-2.35-.27-2.59-.81l-.88-2c-.62-1.4-3.25-1.94-5.87-1.2L286.55,34c-2.62.74-4.24,2.48-3.62,3.88l.88,2c.24.54-.39,1.42-1.38,1.93s-1.81,1-2.66,1.49a5,5,0,0,1-1.23.52,4.76,4.76,0,0,1-2.06.17l-3.26-.66a7.94,7.94,0,0,0-3.69.2,6.67,6.67,0,0,0-3,1.69l-3.27,3.51a2,2,0,0,0-.6,2.19,2.9,2.9,0,0,0,2.19,1.4l3.27.66a1.29,1.29,0,0,1,1.15,1.6,12.61,12.61,0,0,0-.53,1.93,3,3,0,0,1-2.08,1.78l-3.71,1c-2.62.74-4.24,2.48-3.62,3.88l1.44,3.24c.62,1.4,3.25,1.93,5.87,1.19l3.71-1a4,4,0,0,1,3,.33,16.07,16.07,0,0,0,1.94,1.23,1.14,1.14,0,0,1,.36,1.82l-2,2.16c-1.41,1.51-.69,3.12,1.6,3.59l5.31,1.08a7.89,7.89,0,0,0,3.68-.2,6.71,6.71,0,0,0,3-1.69l2-2.16a3.93,3.93,0,0,1,1.73-.9,5.9,5.9,0,0,1,1.37-.22c1.07,0,2.16-.08,3.24-.17s2.36.27,2.59.8l.89,2c.62,1.39,3.25,1.93,5.87,1.19L311,73.74c2.62-.74,4.24-2.48,3.62-3.88l-.88-2c-.24-.54.39-1.42,1.38-1.93s1.81-1,2.65-1.5a5.08,5.08,0,0,1,1.24-.51,4.79,4.79,0,0,1,2.06-.18l3.26.67a8,8,0,0,0,3.69-.21,6.44,6.44,0,0,0,3-1.69l3.27-3.5c1.41-1.52.7-3.13-1.59-3.59l-3.26-.67c-.88-.18-1.41-.91-1.16-1.59a12.11,12.11,0,0,0,.53-1.93,3,3,0,0,1,2.09-1.78l3.71-1c2.61-.74,4.24-2.48,3.61-3.88l-1.43-3.24c-.63-1.4-3.26-1.94-5.88-1.2Zm-18.25,9.84c1.82,4.1-2.94,9.2-10.61,11.37s-15.39.59-17.21-3.51,2.94-9.2,10.61-11.36,15.39-.6,17.21,3.5Z"/><path class="cls-3" d="M261,41.56a.72.72,0,0,1,.42-.4l1.86-.52c1.75-.49,2.83-1.65,2.41-2.59l-.72-1.62c-.41-.93-2.16-1.29-3.91-.8l-1.86.53a1,1,0,0,1-.64-.1,8.48,8.48,0,0,0-1-.65.27.27,0,0,1-.12-.38l1-1.08c.94-1,.46-2.08-1.06-2.39L254.67,31a5.34,5.34,0,0,0-2.46.14,4.33,4.33,0,0,0-2,1.12l-1,1.08a1,1,0,0,1-.36.17,1.47,1.47,0,0,1-.33,0c-.56,0-1.14.05-1.71.09a.75.75,0,0,1-.59-.15l-.44-1c-.41-.93-2.17-1.29-3.91-.8l-3,.86c-1.74.49-2.82,1.65-2.41,2.58l.44,1c0,.07-.11.29-.34.41-.48.25-.95.52-1.4.79a1.33,1.33,0,0,1-.29.12,1,1,0,0,1-.41,0l-1.64-.33a5.3,5.3,0,0,0-2.45.14,4.51,4.51,0,0,0-2,1.12l-1.63,1.76c-.94,1-.47,2.08,1.06,2.39l1.63.33a.3.3,0,0,1,.21.36,6.65,6.65,0,0,0-.28,1,.72.72,0,0,1-.42.4l-1.86.53c-1.74.49-2.83,1.65-2.41,2.58l.72,1.63c.41.93,2.17,1.29,3.91.79l1.86-.52a1,1,0,0,1,.64.1,9.3,9.3,0,0,0,1,.64.28.28,0,0,1,.12.39l-1,1.08a1.32,1.32,0,0,0-.39,1.45,1.9,1.9,0,0,0,1.46.94l2.65.54a5.35,5.35,0,0,0,2.46-.14,4.39,4.39,0,0,0,2-1.13l1-1.08a1.13,1.13,0,0,1,.36-.16l.32-.06q.86,0,1.71-.09a.8.8,0,0,1,.59.15l.44,1c.42.93,2.17,1.29,3.92.8l3-.86c1.74-.49,2.83-1.65,2.41-2.59l-.44-1c0-.08.11-.3.34-.42.48-.24,1-.51,1.4-.78a.94.94,0,0,1,.3-.12,1.09,1.09,0,0,1,.41-.06l1.63.34a5.35,5.35,0,0,0,2.46-.14,4.39,4.39,0,0,0,2-1.13l1.64-1.75c.94-1,.46-2.08-1.06-2.39l-1.64-.33a.3.3,0,0,1-.21-.36,5.54,5.54,0,0,0,.28-1Zm-9.67-.36c.81,1.82-1.3,4.08-4.7,5s-6.82.26-7.63-1.55,1.31-4.08,4.7-5,6.82-.27,7.63,1.55Z"/><path class="cls-4" d="M410.38,53.61l.21-.1a20.14,20.14,0,0,0-1.12-1.76h0c-.62-2-3.33-4-3.33-4,3.08,3.44.2,5.49-.66,6L290,112.14c-8,3.44-15.81.4-18.24-.73L158.63,55h0s-4.43-2.46-.7-6.3c0,0-3,2.13-3.54,4.19l-.67-.34c-.19.29-.38.58-.55.88l-.49.93.58.28c-1.5,1.64-1.57,5.75-1.57,5.75,1.31-5.55,6.47-3.3,6.5-3.29l112.34,56a22.22,22.22,0,0,1,10.24,17.2l0-1.41V271c0,1-.47,4.45-5.24,3.3,0,0,4.35,3,6.19,1.57h.73c2,1,6.31-1.73,6.31-1.73-5.12,1.58-6.13-2.77-6.13-2.77V130.42A22.62,22.62,0,0,1,292.94,113L405.52,56.07h0s5.72-2.48,6.83,3.13C412.35,59.2,412.05,55.11,410.38,53.61Z"/><path class="cls-5" d="M66.51,441H63.63l-5.06-16.8c-.24-.74-.51-1.68-.81-2.81a17.63,17.63,0,0,1-.46-2.05,38.4,38.4,0,0,1-1.2,5L51.19,441H48.31l-6.68-25.09h3.09l4,15.5a56.78,56.78,0,0,1,1.2,5.9,42.29,42.29,0,0,1,1.37-6.14l4.49-15.26h3.09l4.72,15.39a47.44,47.44,0,0,1,1.39,6,51.86,51.86,0,0,1,1.24-5.94l3.94-15.46h3.09Z"/><path class="cls-5" d="M93,431.58a10.4,10.4,0,0,1-2.31,7.18,8.17,8.17,0,0,1-6.4,2.58,8.47,8.47,0,0,1-4.48-1.18,7.83,7.83,0,0,1-3-3.4,11.8,11.8,0,0,1-1.06-5.18c0-3.07.76-5.45,2.3-7.16a8.13,8.13,0,0,1,6.38-2.57,8,8,0,0,1,6.27,2.63A10.31,10.31,0,0,1,93,431.58Zm-14.32,0a8.94,8.94,0,0,0,1.44,5.49,5.71,5.71,0,0,0,8.48,0,8.86,8.86,0,0,0,1.45-5.5,8.72,8.72,0,0,0-1.45-5.45,5.08,5.08,0,0,0-4.28-1.86,5,5,0,0,0-4.22,1.83A8.86,8.86,0,0,0,78.63,431.58Z"/><path class="cls-5" d="M106.53,421.85a10.87,10.87,0,0,1,2.24.21l-.39,2.64a9.81,9.81,0,0,0-2.06-.26,5,5,0,0,0-3.9,1.85,6.78,6.78,0,0,0-1.62,4.62V441H98V422.19h2.35l.32,3.49h.14a8.23,8.23,0,0,1,2.52-2.83A5.67,5.67,0,0,1,106.53,421.85Z"/><path class="cls-5" d="M125.09,438.48h-.15a6.7,6.7,0,0,1-5.9,2.86,7,7,0,0,1-5.74-2.52q-2.05-2.52-2-7.17t2-7.23a7,7,0,0,1,5.74-2.57,6.83,6.83,0,0,1,5.86,2.78h.23l-.12-1.36-.07-1.32V414.3h2.85V441h-2.32Zm-5.69.48a5.19,5.19,0,0,0,4.23-1.59q1.31-1.59,1.31-5.12v-.6c0-2.67-.45-4.57-1.33-5.71a5,5,0,0,0-4.25-1.7,4.33,4.33,0,0,0-3.83,1.94,9.66,9.66,0,0,0-1.33,5.5,9.29,9.29,0,0,0,1.32,5.44A4.46,4.46,0,0,0,119.4,439Z"/><path class="cls-5" d="M150.16,423.22a7,7,0,0,1-2.6,5.86q-2.59,2.06-7.44,2.05h-3V441h-2.92V415.91h6.51Q150.17,415.91,150.16,423.22Zm-13,5.41h2.63q3.87,0,5.61-1.25a4.65,4.65,0,0,0,1.73-4,4.33,4.33,0,0,0-1.63-3.71,8.55,8.55,0,0,0-5.08-1.21h-3.26Z"/><path class="cls-5" d="M163.56,421.85a10.9,10.9,0,0,1,2.25.21l-.39,2.64a9.89,9.89,0,0,0-2.06-.26,5,5,0,0,0-3.91,1.85,6.78,6.78,0,0,0-1.62,4.62V441H155V422.19h2.35l.33,3.49h.14a8.13,8.13,0,0,1,2.52-2.83A5.61,5.61,0,0,1,163.56,421.85Z"/><path class="cls-5" d="M177.27,441.34a8.62,8.62,0,0,1-6.58-2.54,9.81,9.81,0,0,1-2.41-7.05,10.9,10.9,0,0,1,2.24-7.22,7.42,7.42,0,0,1,6-2.68,7.11,7.11,0,0,1,5.6,2.33,8.91,8.91,0,0,1,2.06,6.13v1.8h-13a7.52,7.52,0,0,0,1.67,5,5.8,5.8,0,0,0,4.47,1.71,15.09,15.09,0,0,0,6-1.27v2.54a14.88,14.88,0,0,1-2.86.94A16,16,0,0,1,177.27,441.34Zm-.77-17.1a4.64,4.64,0,0,0-3.61,1.47,6.79,6.79,0,0,0-1.59,4.08h9.83a6.25,6.25,0,0,0-1.2-4.12A4.2,4.2,0,0,0,176.5,424.24Z"/><path class="cls-5" d="M201.17,435.87a4.72,4.72,0,0,1-1.95,4.05,9.21,9.21,0,0,1-5.49,1.42,12,12,0,0,1-5.84-1.18v-2.64a15.29,15.29,0,0,0,2.91,1.08,12.3,12.3,0,0,0,3,.39,6.85,6.85,0,0,0,3.43-.71,2.45,2.45,0,0,0,.25-4,15.18,15.18,0,0,0-3.72-1.85,20.56,20.56,0,0,1-3.73-1.7,5.11,5.11,0,0,1-1.65-1.66,4.31,4.31,0,0,1-.54-2.21,4.22,4.22,0,0,1,1.87-3.63,8.7,8.7,0,0,1,5.13-1.33,14.89,14.89,0,0,1,5.94,1.24l-1,2.31a13.59,13.59,0,0,0-5.13-1.16,6,6,0,0,0-3.06.63,2,2,0,0,0-1,1.75,2.14,2.14,0,0,0,.39,1.29,3.89,3.89,0,0,0,1.24,1,28.12,28.12,0,0,0,3.3,1.39,12.39,12.39,0,0,1,4.52,2.45A4.35,4.35,0,0,1,201.17,435.87Z"/><path class="cls-5" d="M217.94,435.87a4.7,4.7,0,0,1-2,4.05,9.17,9.17,0,0,1-5.49,1.42,11.91,11.91,0,0,1-5.83-1.18v-2.64a15,15,0,0,0,2.9,1.08,12.36,12.36,0,0,0,3,.39,6.83,6.83,0,0,0,3.43-.71,2.45,2.45,0,0,0,.25-4,14.8,14.8,0,0,0-3.72-1.85,20.9,20.9,0,0,1-3.73-1.7,5.17,5.17,0,0,1-1.64-1.66,4.31,4.31,0,0,1-.54-2.21,4.22,4.22,0,0,1,1.87-3.63,8.66,8.66,0,0,1,5.13-1.33,14.88,14.88,0,0,1,5.93,1.24l-1,2.31a13.59,13.59,0,0,0-5.13-1.16,5.91,5.91,0,0,0-3.05.63,2,2,0,0,0-1,1.75,2.21,2.21,0,0,0,.38,1.29,3.83,3.83,0,0,0,1.25,1,28.53,28.53,0,0,0,3.29,1.39,12.3,12.3,0,0,1,4.52,2.45A4.32,4.32,0,0,1,217.94,435.87Z"/><path class="cls-5" d="M232.13,441V415.91H235v22.45h11.07V441Z"/><path class="cls-5" d="M266.17,431.58a10.35,10.35,0,0,1-2.32,7.18,8.14,8.14,0,0,1-6.4,2.58,8.49,8.49,0,0,1-4.48-1.18,7.83,7.83,0,0,1-3-3.4,11.8,11.8,0,0,1-1.06-5.18,10.35,10.35,0,0,1,2.3-7.16,8.13,8.13,0,0,1,6.38-2.57,8,8,0,0,1,6.27,2.63A10.31,10.31,0,0,1,266.17,431.58Zm-14.33,0a8.94,8.94,0,0,0,1.44,5.49,5.72,5.72,0,0,0,8.49,0,8.93,8.93,0,0,0,1.45-5.5,8.79,8.79,0,0,0-1.45-5.45,5.11,5.11,0,0,0-4.28-1.86,5,5,0,0,0-4.22,1.83A8.85,8.85,0,0,0,251.84,431.58Z"/><path class="cls-5" d="M278.68,441.34a8.07,8.07,0,0,1-6.33-2.51q-2.24-2.52-2.23-7.11c0-3.15.75-5.58,2.27-7.3a8.19,8.19,0,0,1,6.48-2.57,13.21,13.21,0,0,1,2.71.29,9,9,0,0,1,2.13.69l-.88,2.42a14.24,14.24,0,0,0-2.06-.63,9.55,9.55,0,0,0-2-.25q-5.73,0-5.73,7.31a8.65,8.65,0,0,0,1.4,5.32,4.84,4.84,0,0,0,4.14,1.85,12.56,12.56,0,0,0,4.82-1v2.52A10.17,10.17,0,0,1,278.68,441.34Z"/><path class="cls-5" d="M299.46,441l-.57-2.68h-.14a7.89,7.89,0,0,1-2.8,2.4,8.69,8.69,0,0,1-3.49.62,6.29,6.29,0,0,1-4.39-1.44,5.25,5.25,0,0,1-1.58-4.1q0-5.7,9.11-6l3.19-.1v-1.17a4.78,4.78,0,0,0-1-3.27,3.94,3.94,0,0,0-3-1.05,12.42,12.42,0,0,0-5.32,1.44l-.87-2.18a13.18,13.18,0,0,1,3-1.19,13.44,13.44,0,0,1,3.32-.43,7.16,7.16,0,0,1,5,1.5c1.08,1,1.62,2.59,1.62,4.78V441ZM293,439a5.74,5.74,0,0,0,4.18-1.46,5.39,5.39,0,0,0,1.52-4.08v-1.7l-2.85.12a10.29,10.29,0,0,0-4.9,1.06,3.17,3.17,0,0,0-1.5,2.9,2.9,2.9,0,0,0,.94,2.35A3.85,3.85,0,0,0,293,439Z"/><path class="cls-5" d="M310.28,441h-2.84V414.3h2.84Z"/><path class="cls-5" d="M345.9,428.22q0,6.21-3.37,9.49t-9.7,3.29h-6.95V415.91h7.69q5.85,0,9.09,3.25T345.9,428.22Zm-3.08.1q0-4.9-2.47-7.4T333,418.44H328.8v20h3.55q5.22,0,7.84-2.57T342.82,428.32Z"/><path class="cls-5" d="M359,441.34a8.62,8.62,0,0,1-6.58-2.54,9.85,9.85,0,0,1-2.41-7.05,10.9,10.9,0,0,1,2.24-7.22,7.44,7.44,0,0,1,6-2.68,7.09,7.09,0,0,1,5.59,2.33,8.91,8.91,0,0,1,2.06,6.13v1.8H353a7.48,7.48,0,0,0,1.68,5,5.8,5.8,0,0,0,4.47,1.71,15.08,15.08,0,0,0,6-1.27v2.54a14.66,14.66,0,0,1-2.86.94A15.91,15.91,0,0,1,359,441.34Zm-.77-17.1a4.66,4.66,0,0,0-3.61,1.47,6.79,6.79,0,0,0-1.59,4.08h9.83a6.25,6.25,0,0,0-1.2-4.12A4.2,4.2,0,0,0,358.24,424.24Z"/><path class="cls-5" d="M374.9,441l-7.13-18.81h3.05l4.05,11.16a53,53,0,0,1,1.61,5.08h.14a38.29,38.29,0,0,1,1.19-3.77q1-2.87,4.51-12.47h3.05L378.23,441Z"/><path class="cls-5" d="M396.33,441.34a8.62,8.62,0,0,1-6.58-2.54,9.85,9.85,0,0,1-2.41-7.05,10.9,10.9,0,0,1,2.24-7.22,7.44,7.44,0,0,1,6-2.68,7.09,7.09,0,0,1,5.59,2.33,8.91,8.91,0,0,1,2.06,6.13v1.8h-13a7.48,7.48,0,0,0,1.68,5,5.8,5.8,0,0,0,4.47,1.71,15.08,15.08,0,0,0,6-1.27v2.54a14.66,14.66,0,0,1-2.86.94A15.91,15.91,0,0,1,396.33,441.34Zm-.77-17.1a4.66,4.66,0,0,0-3.61,1.47,6.79,6.79,0,0,0-1.59,4.08h9.83a6.25,6.25,0,0,0-1.2-4.12A4.2,4.2,0,0,0,395.56,424.24Z"/><path class="cls-5" d="M411,441H408.1V414.3H411Z"/><path class="cls-5" d="M433.22,431.58a10.4,10.4,0,0,1-2.31,7.18,8.16,8.16,0,0,1-6.4,2.58,8.47,8.47,0,0,1-4.48-1.18,7.83,7.83,0,0,1-3-3.4,11.8,11.8,0,0,1-1.06-5.18c0-3.07.76-5.45,2.3-7.16a8.13,8.13,0,0,1,6.38-2.57,8,8,0,0,1,6.27,2.63A10.31,10.31,0,0,1,433.22,431.58Zm-14.32,0a8.94,8.94,0,0,0,1.44,5.49,5.71,5.71,0,0,0,8.48,0,8.86,8.86,0,0,0,1.45-5.5,8.72,8.72,0,0,0-1.45-5.45,5.08,5.08,0,0,0-4.28-1.86,5,5,0,0,0-4.22,1.83A8.86,8.86,0,0,0,418.9,431.58Z"/><path class="cls-5" d="M447,441.34a8,8,0,0,1-3.36-.68,6.22,6.22,0,0,1-2.54-2.08h-.21a24.76,24.76,0,0,1,.21,3.12v7.74h-2.85V422.19h2.31l.4,2.58h.14a6.53,6.53,0,0,1,2.55-2.23,7.74,7.74,0,0,1,3.35-.69,6.93,6.93,0,0,1,5.77,2.56q2,2.55,2,7.17t-2.07,7.2A7,7,0,0,1,447,441.34Zm-.41-17.07a5,5,0,0,0-4.17,1.6q-1.29,1.59-1.32,5.07v.64q0,4,1.32,5.67a5,5,0,0,0,4.24,1.71,4.39,4.39,0,0,0,3.81-2,9.33,9.33,0,0,0,1.38-5.44,9,9,0,0,0-1.38-5.39A4.54,4.54,0,0,0,446.56,424.27Z"/><path class="cls-5" d="M483.72,441V428.76a5.09,5.09,0,0,0-1-3.37,3.7,3.7,0,0,0-3-1.12,4.8,4.8,0,0,0-3.93,1.53,7.21,7.21,0,0,0-1.27,4.7V441h-2.85V428.76a5.09,5.09,0,0,0-1-3.37,3.74,3.74,0,0,0-3-1.12,4.65,4.65,0,0,0-3.92,1.6c-.83,1.07-1.24,2.83-1.24,5.26V441h-2.85V422.19h2.32l.46,2.58h.14a5.61,5.61,0,0,1,2.27-2.15,7,7,0,0,1,3.29-.77q4.41,0,5.76,3.19h.14a6,6,0,0,1,2.44-2.33,7.55,7.55,0,0,1,3.63-.86,6.37,6.37,0,0,1,4.78,1.64q1.59,1.63,1.59,5.24V441Z"/><path class="cls-5" d="M500.38,441.34a8.62,8.62,0,0,1-6.58-2.54,9.85,9.85,0,0,1-2.41-7.05,10.9,10.9,0,0,1,2.24-7.22,7.43,7.43,0,0,1,6-2.68,7.09,7.09,0,0,1,5.59,2.33,8.91,8.91,0,0,1,2.06,6.13v1.8h-13a7.48,7.48,0,0,0,1.68,5,5.79,5.79,0,0,0,4.47,1.71,15.08,15.08,0,0,0,6-1.27v2.54a14.66,14.66,0,0,1-2.86.94A15.91,15.91,0,0,1,500.38,441.34Zm-.77-17.1a4.66,4.66,0,0,0-3.61,1.47,6.79,6.79,0,0,0-1.59,4.08h9.83a6.25,6.25,0,0,0-1.2-4.12A4.2,4.2,0,0,0,499.61,424.24Z"/><path class="cls-5" d="M525,441V428.83a5,5,0,0,0-1-3.43,4.29,4.29,0,0,0-3.28-1.13,5.4,5.4,0,0,0-4.33,1.6c-.91,1.06-1.37,2.82-1.37,5.26V441h-2.85V422.19h2.32l.46,2.58h.14a5.8,5.8,0,0,1,2.45-2.16,8.14,8.14,0,0,1,3.52-.76,7.17,7.17,0,0,1,5.12,1.64q1.71,1.63,1.71,5.24V441Z"/><path class="cls-5" d="M539.8,439a9.93,9.93,0,0,0,1.46-.11,8.74,8.74,0,0,0,1.11-.23v2.18a5.24,5.24,0,0,1-1.36.37,11.1,11.1,0,0,1-1.63.14c-3.63,0-5.45-1.91-5.45-5.75V424.41h-2.7V423l2.7-1.18,1.2-4h1.65v4.36h5.45v2.22h-5.45v11.06a3.83,3.83,0,0,0,.8,2.61A2.81,2.81,0,0,0,539.8,439Z"/><path class="cls-2" d="M125.83,360.49c1.82-4.39,4.29-8.26,5.44-12.34.36-1.26,1-1.8,2.71-1.69a25.63,25.63,0,0,0,9.58-1.06c8.66-2.26,14-8.73,13.57-16.37-.44-8-6.3-13.54-16.28-15.3a113.63,113.63,0,0,0-15.23-1.09c-2.34-.05-3.05.44-3,2.48.11,18.84.06,37.69.06,56.53,0,7,0,14,0,21,0,1.53-.39,2-2.33,2-4.86-.12-8.5-.11-13.37,0-1.93.05-2.64-.32-2.64-2.05q.08-46.44,0-92.87c0-1-.12-1.93,1.59-1.9,13.85.21,28.58-1.09,42.17,1.92,14.36,3.18,24.82,10.07,28.11,22.78,4.54,17.53-8.4,34-29.57,37.66A63.25,63.25,0,0,1,125.83,360.49Z"/><path class="cls-1" d="M237.93,379.67c-8.07.08-26.24.05-34.31,0-2.25,0-2.93.22-3.14-.65V299.41a1.7,1.7,0,0,0-1.7-1.7H185.19a1.71,1.71,0,0,0-1.7,1.7v93.45a1.7,1.7,0,0,0,1.7,1.7H198.8l35.69.05c1.62,0,2.38-.39,2.72-2.07a107.09,107.09,0,0,1,2.6-10.49C240.47,380,239.84,379.65,237.93,379.67Z"/><rect class="cls-1" x="245.11" y="331.24" width="16.27" height="63.33" rx="3.37" ry="3.37"/><path class="cls-6" d="M545.87,363,563,345.81a3.39,3.39,0,0,0,0-4.77l-8.73-8.73a3.37,3.37,0,0,0-4.77,0l-17.15,17.14-17.14-17.14a3.38,3.38,0,0,0-4.78,0L501.72,341a3.39,3.39,0,0,0,0,4.77L518.87,363,501.72,380.1a3.39,3.39,0,0,0,0,4.77l8.73,8.73a3.38,3.38,0,0,0,4.78,0l17.14-17.14,17.15,17.14a3.37,3.37,0,0,0,4.77,0l8.73-8.73a3.39,3.39,0,0,0,0-4.77Z"/><path class="cls-1" d="M324.05,345.3a39.41,39.41,0,0,0-12.93-10.44,37.84,37.84,0,0,0-8.57-2.74c-6.07-1.18-9.38-1.16-15.84,0,1.63,4.39,3.84,8.26,4.87,12.34a1.94,1.94,0,0,0,2.41,1.69,10.7,10.7,0,0,1,5.77.73c7.68,2.43,12.51,8.73,12.13,16.37-.39,8-5.63,13.54-14.55,15.31a69.31,69.31,0,0,1-11.87,1.08c-1.58,0-2.33-.24-2.6-1.25v-79.7a1,1,0,0,0-1-1h-14a1,1,0,0,0-1,1v95a1,1,0,0,0,1,1h14.1c7.36,0,14.7-.23,21.91-2,12.84-3.18,22.19-10.08,25.13-22.78A29.66,29.66,0,0,0,324.05,345.3Z"/><rect class="cls-1" x="245.11" y="308.47" width="16.27" height="15.66" rx="3.37" ry="3.37"/><path class="cls-7" d="M100.1,297.86v0H93.7c-2.76,0-5.37,0-8-.05A4.23,4.23,0,0,0,81.37,301c-2.19,6.41-4.45,12.91-6.64,19.19l-8.29,26L51.75,313.66c-1.47-3.34-1.94-3.27-3.38,0l-14.7,32.58-1.59-4.65c-4.69-13.43-7.94-27.32-12.67-41a3.55,3.55,0,0,0-3.54-2.78c-2.81,0-6.48,0-9.43,0H0l28.34,93.36h0c1,3.16,2.38,3.4,2.7,3.41h4.64a3,3,0,0,0,2.7-2.34,6.24,6.24,0,0,0,.28-1.07l11.4-40,11.4,40a6.24,6.24,0,0,0,.28,1.07,3,3,0,0,0,2.7,2.34h4.65c.31,0,1.73-.25,2.69-3.41h0l28.34-93.36Z"/><path class="cls-6" d="M428.43,322.45c-2.87-12.7-12-19.59-24.52-22.77-7.28-1.85-14.7-2.07-22.13-2h-.67l-6.06.08q-3.19,0-6.4-.09a4.08,4.08,0,0,0-1.35.13c-.81.14-.92.72-.93,1.38a4.52,4.52,0,0,0,0,.54q0,23.21,0,46.4t0,46.4a4.52,4.52,0,0,0,0,.54c0,.66.12,1.24.93,1.38a4.08,4.08,0,0,0,1.35.13c2.13-.06,4.27-.09,6.4-.09l6.06.08h.67c7.43.05,14.85-.17,22.13-2,12.52-3.18,21.65-10.07,24.52-22.77a30.18,30.18,0,0,0-4.82-24.48C428.16,340.08,430.73,332.62,428.43,322.45Zm-16.68,40.74c-.38,8-5.49,13.54-14.2,15.31A65.91,65.91,0,0,1,386,379.58c-1.72,0-2.43-.3-2.6-1.63,0-2.11,0-4.21,0-6.32v-51c0-2.11,0-4.21,0-6.32.17-1.33.88-1.67,2.6-1.63a65.91,65.91,0,0,1,11.58,1.08c8.71,1.77,13.82,7.3,14.2,15.31a16.24,16.24,0,0,1-.76,5.82,36.51,36.51,0,0,0-8.35-2.74c-5.92-1.18-9.16-1.16-15.46,0,1.59,4.39,3.75,8.26,4.75,12.34a1.91,1.91,0,0,0,2.36,1.69,10.09,10.09,0,0,1,5.62.73C407.41,349.26,412.12,355.56,411.75,363.19Z"/><path class="cls-6" d="M465.86,331.24a31.66,31.66,0,1,0,31.67,31.66A31.66,31.66,0,0,0,465.86,331.24Zm0,46.87a15.21,15.21,0,1,1,15.21-15.21A15.2,15.2,0,0,1,465.86,378.11Z"/></g></g></svg>