<svg xmlns="http://www.w3.org/2000/svg" viewBox="0 0 446.66 460.75"><defs><style>.cls-1{fill:#23518b;}.cls-2{fill:#19538c;}.cls-3{fill:#2e81c0;}.cls-4{fill:#18538c;}.cls-5{fill:#fff;}</style></defs><title>Asset 2</title><g id="Layer_2" data-name="Layer 2"><g id="Layer_1-2" data-name="Layer 1"><path class="cls-1" d="M55.12,454.18H52.87L48.93,441.1c-.19-.58-.4-1.31-.63-2.2a13.62,13.62,0,0,1-.36-1.58,32.78,32.78,0,0,1-.93,3.86l-3.83,13H40.94l-5.2-19.54h2.41l3.08,12.07a44.89,44.89,0,0,1,.94,4.6,33.54,33.54,0,0,1,1.07-4.79l3.5-11.88h2.4l3.68,12a35.33,35.33,0,0,1,1.08,4.68,40.59,40.59,0,0,1,1-4.63l3.08-12h2.4Z"/><path class="cls-1" d="M75.71,446.84a8,8,0,0,1-1.81,5.59,6.32,6.32,0,0,1-5,2,6.58,6.58,0,0,1-3.49-.93,6.06,6.06,0,0,1-2.35-2.64,9.28,9.28,0,0,1-.83-4A8.11,8.11,0,0,1,64,441.26a6.34,6.34,0,0,1,5-2,6.22,6.22,0,0,1,4.89,2A8.08,8.08,0,0,1,75.71,446.84Zm-11.16,0a7,7,0,0,0,1.12,4.28,4.45,4.45,0,0,0,6.61,0,6.91,6.91,0,0,0,1.13-4.28,6.82,6.82,0,0,0-1.13-4.24,4.52,4.52,0,0,0-6.62,0A6.86,6.86,0,0,0,64.55,446.84Z"/><path class="cls-1" d="M86.28,439.27a8.48,8.48,0,0,1,1.75.16l-.31,2.05a7.83,7.83,0,0,0-1.6-.2,3.91,3.91,0,0,0-3,1.45,5.27,5.27,0,0,0-1.27,3.59v7.86H79.6V439.53h1.83l.25,2.72h.11a6.44,6.44,0,0,1,2-2.21A4.49,4.49,0,0,1,86.28,439.27Z"/><path class="cls-1" d="M100.74,452.21h-.13A5.2,5.2,0,0,1,96,454.45a5.43,5.43,0,0,1-4.47-2A8.61,8.61,0,0,1,90,446.9a8.8,8.8,0,0,1,1.61-5.63,5.94,5.94,0,0,1,9,.16h.17l-.09-1.05-.06-1v-6h2.22v20.79H101Zm-4.44.38a4,4,0,0,0,3.29-1.24,6.24,6.24,0,0,0,1-4v-.46a7.38,7.38,0,0,0-1-4.45,4,4,0,0,0-3.31-1.33,3.39,3.39,0,0,0-3,1.52,7.54,7.54,0,0,0-1,4.28,7.21,7.21,0,0,0,1,4.24A3.49,3.49,0,0,0,96.3,452.59Z"/><path class="cls-1" d="M120.26,440.34a5.48,5.48,0,0,1-2,4.56,9.2,9.2,0,0,1-5.79,1.59h-2.3v7.69h-2.27V434.64h5.07Q120.26,434.64,120.26,440.34Zm-10.12,4.2h2a7.61,7.61,0,0,0,4.37-1,3.59,3.59,0,0,0,1.35-3.13,3.37,3.37,0,0,0-1.27-2.88,6.6,6.6,0,0,0-4-.95h-2.54Z"/><path class="cls-1" d="M130.69,439.27a8.41,8.41,0,0,1,1.75.16l-.3,2.05a7.83,7.83,0,0,0-1.61-.2,3.94,3.94,0,0,0-3,1.45,5.26,5.26,0,0,0-1.26,3.59v7.86H124V439.53h1.83l.26,2.72h.1a6.47,6.47,0,0,1,2-2.21A4.45,4.45,0,0,1,130.69,439.27Z"/><path class="cls-1" d="M141.37,454.45a6.72,6.72,0,0,1-5.12-2,7.62,7.62,0,0,1-1.88-5.49,8.52,8.52,0,0,1,1.74-5.63,5.8,5.8,0,0,1,4.69-2.08,5.51,5.51,0,0,1,4.35,1.81,6.92,6.92,0,0,1,1.61,4.77v1.41H136.67a5.78,5.78,0,0,0,1.3,3.91,4.5,4.5,0,0,0,3.48,1.34,11.78,11.78,0,0,0,4.68-1v2a12,12,0,0,1-2.23.73A13,13,0,0,1,141.37,454.45Zm-.6-13.33a3.62,3.62,0,0,0-2.81,1.15,5.29,5.29,0,0,0-1.24,3.18h7.66a4.88,4.88,0,0,0-.94-3.21A3.29,3.29,0,0,0,140.77,441.12Z"/><path class="cls-1" d="M160,450.18a3.66,3.66,0,0,1-1.52,3.16,7.16,7.16,0,0,1-4.27,1.11,9.25,9.25,0,0,1-4.55-.93v-2a11.79,11.79,0,0,0,2.27.84,9.61,9.61,0,0,0,2.33.3,5.26,5.26,0,0,0,2.67-.55,1.84,1.84,0,0,0,.94-1.69,1.82,1.82,0,0,0-.75-1.46,11.19,11.19,0,0,0-2.89-1.44,15.58,15.58,0,0,1-2.9-1.33,4,4,0,0,1-1.29-1.29,3.35,3.35,0,0,1-.42-1.72,3.29,3.29,0,0,1,1.46-2.83,6.78,6.78,0,0,1,4-1,11.75,11.75,0,0,1,4.63,1l-.79,1.8a10.72,10.72,0,0,0-4-.91,4.61,4.61,0,0,0-2.38.5,1.53,1.53,0,0,0-.8,1.36,1.65,1.65,0,0,0,.3,1,3,3,0,0,0,1,.79,21.42,21.42,0,0,0,2.57,1.08,9.78,9.78,0,0,1,3.52,1.91A3.39,3.39,0,0,1,160,450.18Z"/><path class="cls-1" d="M173,450.18a3.68,3.68,0,0,1-1.52,3.16,7.19,7.19,0,0,1-4.28,1.11,9.2,9.2,0,0,1-4.54-.93v-2a11.46,11.46,0,0,0,2.26.84,9.68,9.68,0,0,0,2.33.3,5.33,5.33,0,0,0,2.68-.55,1.91,1.91,0,0,0,.19-3.15,11.55,11.55,0,0,0-2.89-1.44,15.43,15.43,0,0,1-2.91-1.33,4,4,0,0,1-1.28-1.29,3.35,3.35,0,0,1-.42-1.72,3.28,3.28,0,0,1,1.45-2.83,6.81,6.81,0,0,1,4-1,11.66,11.66,0,0,1,4.62,1l-.79,1.8a10.72,10.72,0,0,0-4-.91,4.59,4.59,0,0,0-2.38.5,1.51,1.51,0,0,0-.8,1.36,1.65,1.65,0,0,0,.3,1,2.88,2.88,0,0,0,1,.79,21.06,21.06,0,0,0,2.56,1.08,9.69,9.69,0,0,1,3.52,1.91A3.39,3.39,0,0,1,173,450.18Z"/><path class="cls-1" d="M186.36,454.18h-2.27V434.64H195v2h-8.62v7.15h8.1v2h-8.1Z"/><path class="cls-1" d="M210.52,446.84a8.08,8.08,0,0,1-1.8,5.59,6.35,6.35,0,0,1-5,2,6.58,6.58,0,0,1-3.49-.93,6.06,6.06,0,0,1-2.35-2.64,9.28,9.28,0,0,1-.83-4,8.11,8.11,0,0,1,1.79-5.58,6.34,6.34,0,0,1,5-2,6.22,6.22,0,0,1,4.89,2A8,8,0,0,1,210.52,446.84Zm-11.16,0a7,7,0,0,0,1.12,4.28,4.45,4.45,0,0,0,6.61,0,6.91,6.91,0,0,0,1.13-4.28,6.82,6.82,0,0,0-1.13-4.24,4.52,4.52,0,0,0-6.62,0A6.86,6.86,0,0,0,199.36,446.84Z"/><path class="cls-1" d="M216.49,439.53V449a3.8,3.8,0,0,0,.82,2.68,3.34,3.34,0,0,0,2.55.88,4.16,4.16,0,0,0,3.36-1.26,6.32,6.32,0,0,0,1.06-4.1v-7.7h2.22v14.65h-1.83l-.32-2h-.12a4.42,4.42,0,0,1-1.89,1.66,6.43,6.43,0,0,1-2.76.58,5.61,5.61,0,0,1-4-1.27,5.4,5.4,0,0,1-1.33-4.07v-9.58Z"/><path class="cls-1" d="M241.23,454.18V444.7a3.84,3.84,0,0,0-.82-2.67,3.3,3.3,0,0,0-2.55-.88,4.21,4.21,0,0,0-3.37,1.24,6.3,6.3,0,0,0-1.07,4.1v7.69H231.2V439.53H233l.36,2h.11a4.54,4.54,0,0,1,1.91-1.68,6.15,6.15,0,0,1,2.74-.59,5.56,5.56,0,0,1,4,1.27,5.43,5.43,0,0,1,1.33,4.08v9.56Z"/><path class="cls-1" d="M258,452.21h-.12a5.23,5.23,0,0,1-4.6,2.24,5.46,5.46,0,0,1-4.47-2,8.66,8.66,0,0,1-1.59-5.58,8.8,8.8,0,0,1,1.6-5.63,5.94,5.94,0,0,1,9,.16H258l-.09-1.05,0-1v-6h2.22v20.79h-1.81Zm-4.44.38a4,4,0,0,0,3.3-1.24,6.24,6.24,0,0,0,1-4v-.46a7.37,7.37,0,0,0-1-4.45,3.94,3.94,0,0,0-3.3-1.33,3.39,3.39,0,0,0-3,1.52,7.54,7.54,0,0,0-1,4.28,7.28,7.28,0,0,0,1,4.24A3.49,3.49,0,0,0,253.53,452.59Z"/><path class="cls-1" d="M273.77,454.18l-.44-2.09h-.1A6.19,6.19,0,0,1,271,454a6.72,6.72,0,0,1-2.72.49,4.87,4.87,0,0,1-3.41-1.13,4.11,4.11,0,0,1-1.24-3.19q0-4.44,7.1-4.65l2.48-.08v-.91a3.65,3.65,0,0,0-.74-2.54,3,3,0,0,0-2.37-.83,9.65,9.65,0,0,0-4.14,1.13l-.68-1.7a10.34,10.34,0,0,1,2.37-.92,9.94,9.94,0,0,1,2.58-.34,5.58,5.58,0,0,1,3.89,1.17,4.83,4.83,0,0,1,1.26,3.72v10Zm-5-1.57a4.49,4.49,0,0,0,3.26-1.13,4.2,4.2,0,0,0,1.18-3.18V447l-2.22.09a8.1,8.1,0,0,0-3.81.82,2.48,2.48,0,0,0-1.17,2.27,2.27,2.27,0,0,0,.73,1.83A3,3,0,0,0,268.76,452.61Z"/><path class="cls-1" d="M284.72,452.61a6.91,6.91,0,0,0,1.13-.08,8,8,0,0,0,.87-.18V454a3.64,3.64,0,0,1-1.06.29,7.59,7.59,0,0,1-1.26.12c-2.83,0-4.25-1.5-4.25-4.48v-8.71h-2.1v-1.07l2.1-.92.93-3.13h1.29v3.39h4.25v1.73h-4.25v8.62a3,3,0,0,0,.63,2A2.17,2.17,0,0,0,284.72,452.61Z"/><path class="cls-1" d="M289.46,435.57a1.49,1.49,0,0,1,.38-1.12,1.38,1.38,0,0,1,1.85,0,1.44,1.44,0,0,1,.39,1.11,1.46,1.46,0,0,1-.39,1.11,1.34,1.34,0,0,1-1.85,0A1.49,1.49,0,0,1,289.46,435.57Zm2.41,18.61h-2.22V439.53h2.22Z"/><path class="cls-1" d="M309.21,446.84a8.08,8.08,0,0,1-1.8,5.59,6.34,6.34,0,0,1-5,2,6.52,6.52,0,0,1-3.48-.93,6,6,0,0,1-2.35-2.64,9.14,9.14,0,0,1-.83-4,8.07,8.07,0,0,1,1.79-5.58,6.33,6.33,0,0,1,5-2,6.2,6.2,0,0,1,4.88,2A8,8,0,0,1,309.21,446.84Zm-11.15,0a7,7,0,0,0,1.12,4.28,4.45,4.45,0,0,0,6.61,0,6.92,6.92,0,0,0,1.12-4.28,6.83,6.83,0,0,0-1.12-4.24,4,4,0,0,0-3.34-1.45,3.92,3.92,0,0,0-3.29,1.43A6.86,6.86,0,0,0,298.06,446.84Z"/><path class="cls-1" d="M323.12,454.18V444.7a3.84,3.84,0,0,0-.81-2.67,3.33,3.33,0,0,0-2.55-.88,4.19,4.19,0,0,0-3.37,1.24,6.3,6.3,0,0,0-1.07,4.1v7.69H313.1V439.53h1.8l.37,2h.1a4.6,4.6,0,0,1,1.91-1.68,6.18,6.18,0,0,1,2.74-.59,5.55,5.55,0,0,1,4,1.27,5.39,5.39,0,0,1,1.34,4.08v9.56Z"/><path class="cls-1" d="M337.34,454.18V434.64h2.27v17.48h8.62v2.06Z"/><path class="cls-1" d="M351,435.57a1.49,1.49,0,0,1,.38-1.12,1.38,1.38,0,0,1,1.85,0,1.44,1.44,0,0,1,.39,1.11,1.46,1.46,0,0,1-.39,1.11,1.34,1.34,0,0,1-1.85,0A1.49,1.49,0,0,1,351,435.57Zm2.41,18.61h-2.22V439.53h2.22Z"/><path class="cls-1" d="M365,439.29a5.46,5.46,0,0,1,4.48,2,10.55,10.55,0,0,1,0,11.19,5.45,5.45,0,0,1-4.47,2,6.39,6.39,0,0,1-2.62-.53,4.85,4.85,0,0,1-2-1.63h-.16l-.47,1.89h-1.59V433.39h2.22v5.05c0,1.13,0,2.14-.11,3h.11A5.27,5.27,0,0,1,365,439.29Zm-.32,1.86a3.88,3.88,0,0,0-3.28,1.3,10.07,10.07,0,0,0,0,8.81,3.89,3.89,0,0,0,3.3,1.33,3.44,3.44,0,0,0,3.05-1.49,7.71,7.71,0,0,0,1-4.28,7.45,7.45,0,0,0-1-4.27A3.58,3.58,0,0,0,364.63,441.15Z"/><path class="cls-1" d="M381.58,439.27a8.41,8.41,0,0,1,1.75.16l-.31,2.05a7.66,7.66,0,0,0-1.6-.2,3.92,3.92,0,0,0-3,1.45,5.26,5.26,0,0,0-1.26,3.59v7.86H374.9V439.53h1.83l.26,2.72h.1a6.47,6.47,0,0,1,2-2.21A4.43,4.43,0,0,1,381.58,439.27Z"/><path class="cls-1" d="M395.08,454.18l-.44-2.09h-.11a6.25,6.25,0,0,1-2.18,1.87,6.78,6.78,0,0,1-2.72.49,4.9,4.9,0,0,1-3.42-1.13,4.1,4.1,0,0,1-1.23-3.19q0-4.44,7.09-4.65l2.49-.08v-.91a3.65,3.65,0,0,0-.75-2.54,3,3,0,0,0-2.37-.83,9.65,9.65,0,0,0-4.14,1.13l-.68-1.7a10.34,10.34,0,0,1,2.37-.92,10,10,0,0,1,2.59-.34,5.56,5.56,0,0,1,3.88,1.17,4.83,4.83,0,0,1,1.26,3.72v10Zm-5-1.57a4.48,4.48,0,0,0,3.25-1.13,4.2,4.2,0,0,0,1.18-3.18V447l-2.21.09a8.12,8.12,0,0,0-3.82.82,2.48,2.48,0,0,0-1.17,2.27A2.27,2.27,0,0,0,388,452,3,3,0,0,0,390.07,452.61Z"/><path class="cls-1" d="M408,439.27a8.41,8.41,0,0,1,1.75.16l-.3,2.05a7.83,7.83,0,0,0-1.61-.2,3.92,3.92,0,0,0-3,1.45,5.26,5.26,0,0,0-1.26,3.59v7.86h-2.22V439.53h1.83l.26,2.72h.1a6.47,6.47,0,0,1,2-2.21A4.45,4.45,0,0,1,408,439.27Z"/><path class="cls-1" d="M410.14,439.53h2.38l3.2,8.35A31.39,31.39,0,0,1,417,452h.11c.12-.45.36-1.23.73-2.33s1.58-4.48,3.63-10.15h2.37l-6.29,16.68a8.31,8.31,0,0,1-2.18,3.51,4.67,4.67,0,0,1-3.07,1,9,9,0,0,1-2-.22v-1.78a7.57,7.57,0,0,0,1.65.16c1.52,0,2.61-.86,3.26-2.57l.81-2.08Z"/><path class="cls-2" d="M169.52,376.29c2.46-5.91,5.79-11.13,7.34-16.63.48-1.69,1.39-2.42,3.64-2.27A34.31,34.31,0,0,0,193.41,356c11.67-3,18.85-11.76,18.28-22-.59-10.78-8.48-18.24-21.93-20.62-5.89-1.05-14.5-1.34-20.52-1.47-3.15-.06-4.11.59-4.09,3.35.14,25.38.08,50.77.08,76.16,0,9.41-.07,18.81.07,28.22,0,2.06-.53,2.74-3.14,2.67-6.55-.17-11.46-.15-18,0-2.61.07-3.57-.43-3.57-2.76q.12-62.56,0-125.13c0-1.29-.15-2.59,2.15-2.56,18.65.29,38.5-1.46,56.81,2.59,19.34,4.28,33.44,13.57,37.87,30.69,6.12,23.63-11.31,45.79-39.84,50.74A85.16,85.16,0,0,1,169.52,376.29Z"/><path class="cls-3" d="M322.9,402.13c-10.87.1-35.35.07-46.23,0-3,0-3.94.3-4.22-.88V294a2.3,2.3,0,0,0-2.29-2.29H251.85a2.3,2.3,0,0,0-2.3,2.29V419.9a2.31,2.31,0,0,0,2.3,2.3h18.33c11.51,0,36.59,0,48.09.07,2.18,0,3.2-.53,3.66-2.79,1-4.75,2.06-9.51,3.5-14.13C326.32,402.51,325.47,402.11,322.9,402.13Z"/><rect class="cls-3" x="332.58" y="336.88" width="21.92" height="85.32" rx="3.37" ry="3.37"/><path class="cls-3" d="M438.92,355.82c-5.9-7.6-13.21-11.81-17.42-14.06A51.07,51.07,0,0,0,410,338.07c-8.18-1.59-12.64-1.56-21.34-.06,2.19,5.92,5.17,11.14,6.56,16.63.43,1.69,1.24,2.42,3.25,2.27,4.66-.34,5.19.18,7.77,1,10.35,3.28,16.85,11.76,16.34,22.05-.53,10.79-7.58,18.25-19.6,20.63A94,94,0,0,1,387,402c-2.12,0-3.14-.33-3.5-1.69V293a1.34,1.34,0,0,0-1.34-1.33H363.2a1.34,1.34,0,0,0-1.33,1.33V420.89a1.34,1.34,0,0,0,1.33,1.34h19c9.92,0,19.81-.31,29.53-2.72,17.29-4.28,29.89-13.57,33.85-30.69A39.94,39.94,0,0,0,438.92,355.82Z"/><rect class="cls-3" x="332.58" y="306.21" width="21.92" height="21.1" rx="3.37" ry="3.37"/><path class="cls-4" d="M134.86,291.91l0-.06h-4.21l-4.43,0c-3.72,0-7.24,0-10.77-.07a5.7,5.7,0,0,0-5.84,4.39c-2.95,8.64-6,17.39-8.95,25.86l-11.16,35-19.8-43.89c-2-4.49-2.61-4.4-4.55,0l-19.81,43.9-2.14-6.27C36.9,332.73,31.35,314,25,295.59a4.81,4.81,0,0,0-4.78-3.75c-3.77,0-7.55,0-11.53,0H0L38.19,417.64h0c1.29,4.25,3.2,4.57,3.62,4.59h6.26c2.11,0,3.15-1.8,3.63-3.15a8,8,0,0,0,.38-1.44l15.36-53.9,15.37,53.9a8.38,8.38,0,0,0,.37,1.44c.49,1.35,1.53,3.15,3.64,3.15h6.25c.43,0,2.34-.34,3.63-4.59h0l38.19-125.78Z"/><path class="cls-3" d="M104,192.28V77.33a19.88,19.88,0,0,1,9.93-17.2L213.45,2.66a19.85,19.85,0,0,1,19.86,0l99.54,57.47a19.86,19.86,0,0,1,9.93,17.2v115a19.85,19.85,0,0,1-9.93,17.2L233.31,267a19.85,19.85,0,0,1-19.86,0L113.9,209.48A19.87,19.87,0,0,1,104,192.28Z"/><path class="cls-2" d="M342.78,185.14v6c0,8.58.28,12.38-11,18.93L235,266c-8.32,4.81-12.6,7.09-25.1-1l-94.28-54.41C103.66,204,104,199.27,104,189.66v-4.52l119.41,65.31Z"/><path class="cls-5" d="M190.47,110.57,161,114a2.84,2.84,0,0,0,.33,5.65l.33,0,29.5-3.47a41.21,41.21,0,0,1,15.53,1.16,2.83,2.83,0,0,0,1.49-5.47A46.78,46.78,0,0,0,190.47,110.57Z"/><path class="cls-5" d="M208.15,124.89a46.78,46.78,0,0,0-17.68-1.32L161,127a2.83,2.83,0,0,0,.33,5.64,1.83,1.83,0,0,0,.33,0l29.5-3.46a41,41,0,0,1,15.53,1.16,2.83,2.83,0,0,0,1.49-5.47Z"/><path class="cls-5" d="M208.15,137.89a46.78,46.78,0,0,0-17.68-1.32L161,140a2.83,2.83,0,0,0,.33,5.65l.33,0,29.5-3.46a41,41,0,0,1,15.53,1.16,2.83,2.83,0,0,0,1.49-5.47Z"/><path class="cls-5" d="M225.49,143.35c.58-.16,1.16-.3,1.74-.43l-2.53-5.21-.7.17a2.83,2.83,0,1,0,1.49,5.47Z"/><path class="cls-5" d="M243.44,176.35H144.78V89.28h3.95v77.9a2.84,2.84,0,0,0,3.16,2.82l39.3-4.62a40.86,40.86,0,0,1,23.64,4.32,2.86,2.86,0,0,0,2.61,0A40.7,40.7,0,0,1,238,165.14l-2.76-5.68A46.51,46.51,0,0,0,219,162.77V125.89L213.3,114.2v48.57A46.37,46.37,0,0,0,196,159.43a48.08,48.08,0,0,0-5.48.32L154.4,164V79.72l36.79-4.32c1.05-.13,2.11-.2,3.17-.24l-2.67-5.49c-.39,0-.77,0-1.16.1l-39.3,4.62a2.82,2.82,0,0,0-2.5,2.81v6.42H142a2.83,2.83,0,0,0-2.84,2.83v92.73A2.83,2.83,0,0,0,142,182H246.19Z"/><path class="cls-5" d="M190.47,97.58,161,101a2.84,2.84,0,0,0,.33,5.65l.33,0,29.5-3.46a41.21,41.21,0,0,1,15.53,1.15,2.86,2.86,0,0,0,1.81-.11l-2.9-6A46.63,46.63,0,0,0,190.47,97.58Z"/><path class="cls-5" d="M161,88a2.83,2.83,0,0,0,.33,5.65l.33,0,29.5-3.46a41.31,41.31,0,0,1,10.6.15l-2.91-6a46.64,46.64,0,0,0-8.35.21Z"/><path class="cls-5" d="M264.75,119.62a18.54,18.54,0,0,0-1.88-14.23,18.83,18.83,0,0,0-1.6-2.33l15.87-15.8a39.91,39.91,0,0,1,5.11,7,40.79,40.79,0,0,1,5.49,20.69,2.09,2.09,0,0,0,2.09,2.09h0a2.09,2.09,0,0,0,2.09-2.07,45.1,45.1,0,0,0-1.06-9.85l4.76-1.27a2.09,2.09,0,1,0-1.08-4l-4.75,1.27A43.69,43.69,0,0,0,286.86,94l4.25-2.44A2.09,2.09,0,1,0,289,87.94l-4.27,2.46a44.75,44.75,0,0,0-4.66-6.09l3.47-3.46a2,2,0,0,0,0-2.94,2.09,2.09,0,0,0-2.95,0l-3.47,3.44A44.62,44.62,0,0,0,271,76.72l2.46-4.25a2.08,2.08,0,0,0-.76-2.85,2.12,2.12,0,0,0-2.87.77l-2.46,4.25a45.7,45.7,0,0,0-7.11-2.9L261.58,67a2.1,2.1,0,0,0-4.05-1.09l-1.27,4.77a46.4,46.4,0,0,0-7.61-1V64.73a2.1,2.1,0,0,0-4.19,0v4.9a46.05,46.05,0,0,0-7.62,1l-1.26-4.71A2.1,2.1,0,0,0,231.53,67l1.27,4.71a45.28,45.28,0,0,0-7.09,3l-2.46-4.26a2.09,2.09,0,0,0-3.63,2.08l2.45,4.24A44,44,0,0,0,216,81.37l-3.48-3.46a2.09,2.09,0,0,0-2.95,0,2,2,0,0,0,0,2.94L213,84.32c-.57.62-1.11,1.27-1.64,1.92l2,4.18c.81-1.09,1.66-2.14,2.57-3.15l15.85,15.78a18.81,18.81,0,1,0,32.91,16.57ZM218.94,84.31a40.58,40.58,0,0,1,7-5.1,41.41,41.41,0,0,1,48.23,5.1L258.31,100.1a18.92,18.92,0,0,0-21.18-1.59,22.18,22.18,0,0,0-2.32,1.6Zm23.82,44.55a14.6,14.6,0,0,1,3.78-28.7,15.18,15.18,0,0,1,3.81.51,14.51,14.51,0,0,1,8.89,6.8,14.3,14.3,0,0,1,1.46,11.07,14.64,14.64,0,0,1-17.94,10.32Z"/><path class="cls-5" d="M246.61,50.9a66.12,66.12,0,0,0-44.18,16.87l3.11,6.41h0l.34.7a58.5,58.5,0,0,1,98,54.14,31.05,31.05,0,0,0-15.45-5.37V121a2.1,2.1,0,0,0-4.2,0v2.61a30.79,30.79,0,0,0-11.53,3.06l-1.3-2.25a2.09,2.09,0,0,0-3.63,2.09l1.32,2.27a30.68,30.68,0,0,0-8.44,8.4l-2.28-1.31a2.09,2.09,0,1,0-2.09,3.61l2.26,1.3a31,31,0,0,0-3.09,11.49h-2.62a2.09,2.09,0,0,0,0,4.17h2.64a30.82,30.82,0,0,0,.57,4.24s0,.06,0,.08,0,.05,0,.07a30.82,30.82,0,0,0,3.45,8.94,26.36,26.36,0,0,0,2.34,3.4,58.85,58.85,0,0,1-7.54,1.52l1.91,3.93h0l1.55,3.21A65.93,65.93,0,0,0,246.61,50.9Zm31.53,108.19a9.45,9.45,0,0,1,16.38-9.43c.07.13.14.25.21.4l-.67.93c-.39.54-.8,1.07-1.21,1.6-.61.79-1.23,1.55-1.89,2.3-.39.46-.79.91-1.18,1.35s-1,1.07-1.54,1.6c-.31.32-.64.63-1,.94-.89.86-1.81,1.68-2.75,2.48-.36.3-.7.6-1.06.89l-1,.8A9.42,9.42,0,0,1,278.14,159.09Zm8.15-31.37a26.83,26.83,0,0,1,16.48,5.63c0,.1,0,.2-.08.31-.24.78-.49,1.54-.76,2.31-.1.29-.19.59-.3.88-.25.7-.54,1.39-.83,2.08-.41,1-.85,2-1.33,3,0,.07-.07.14-.1.22-.67,1.36-1.4,2.69-2.16,4a13.69,13.69,0,0,0-15.8-4.47l-6.59-11.36A26.8,26.8,0,0,1,286.29,127.72Zm-15.11,4.69,6.61,11.4a13.54,13.54,0,0,0-5.06,11.32l-12.93,2.73A26.66,26.66,0,0,1,271.18,132.41Zm-10.5,29.53,12.92-2.73a12.86,12.86,0,0,0,.93,1.95,13.38,13.38,0,0,0,4.23,4.43q-2,1.33-4.14,2.49a4.23,4.23,0,0,1-.46.25c-.69.37-1.37.72-2.08,1.06-.54.26-1.09.51-1.64.75-.36.16-.72.34-1.09.49-1,.42-2,.81-3.05,1.18l-.16.05a25.61,25.61,0,0,1-5.46-9.92Z"/></g></g></svg>