<svg xmlns="http://www.w3.org/2000/svg" viewBox="0 0 654.79 237.62"><defs><style>.cls-1{fill:#23518b;}.cls-2{fill:#19538c;}.cls-3{fill:#2e81c0;}.cls-4{fill:#18538c;}.cls-5{fill:#fff;}</style></defs><title>Asset 1</title><g id="Layer_2" data-name="Layer 2"><g id="Layer_1-2" data-name="Layer 1"><path class="cls-1" d="M287.6,208.79h-2.11l-3.69-12.27c-.18-.54-.37-1.22-.59-2.05a12.35,12.35,0,0,1-.34-1.49,28.14,28.14,0,0,1-.88,3.62l-3.58,12.19H274.3l-4.87-18.32h2.25l2.9,11.32a43.55,43.55,0,0,1,.88,4.31,30.72,30.72,0,0,1,1-4.49l3.28-11.14H282l3.44,11.24a35.3,35.3,0,0,1,1,4.39,38.52,38.52,0,0,1,.9-4.34l2.88-11.29h2.26Z"/><path class="cls-1" d="M306.91,201.91a7.58,7.58,0,0,1-1.69,5.25,6,6,0,0,1-4.68,1.88,6.19,6.19,0,0,1-3.27-.86,5.78,5.78,0,0,1-2.2-2.48,8.64,8.64,0,0,1-.78-3.79,7.56,7.56,0,0,1,1.68-5.23,5.93,5.93,0,0,1,4.66-1.87,5.81,5.81,0,0,1,4.58,1.92A7.52,7.52,0,0,1,306.91,201.91Zm-10.46,0a6.52,6.52,0,0,0,1.05,4,3.64,3.64,0,0,0,3.09,1.38,3.7,3.7,0,0,0,3.11-1.37,6.53,6.53,0,0,0,1.05-4,6.44,6.44,0,0,0-1.05-4,3.75,3.75,0,0,0-3.13-1.36,3.64,3.64,0,0,0-3.08,1.35A6.38,6.38,0,0,0,296.45,201.91Z"/><path class="cls-1" d="M316.82,194.81a8.11,8.11,0,0,1,1.64.15l-.29,1.93a6.68,6.68,0,0,0-1.5-.19,3.66,3.66,0,0,0-2.85,1.35,5,5,0,0,0-1.18,3.37v7.37h-2.08V195.06h1.71l.24,2.54h.1a6.12,6.12,0,0,1,1.84-2.07A4.18,4.18,0,0,1,316.82,194.81Z"/><path class="cls-1" d="M330.38,207h-.11A4.88,4.88,0,0,1,326,209a5.07,5.07,0,0,1-4.19-1.84,8.1,8.1,0,0,1-1.5-5.24,8.24,8.24,0,0,1,1.5-5.27,5,5,0,0,1,4.19-1.88,5,5,0,0,1,4.28,2h.17l-.09-1-.05-1v-5.59h2.08v19.5h-1.69Zm-4.16.35a3.8,3.8,0,0,0,3.09-1.16,5.85,5.85,0,0,0,1-3.74V202a6.93,6.93,0,0,0-1-4.16,3.69,3.69,0,0,0-3.1-1.25,3.2,3.2,0,0,0-2.81,1.42,7.15,7.15,0,0,0-1,4,6.8,6.8,0,0,0,1,4A3.27,3.27,0,0,0,326.22,207.3Z"/><path class="cls-1" d="M348.69,195.81a5.13,5.13,0,0,1-1.9,4.28,8.6,8.6,0,0,1-5.43,1.5H339.2v7.2h-2.13V190.47h4.75Q348.69,190.47,348.69,195.81Zm-9.49,3.95h1.92a7.14,7.14,0,0,0,4.1-.92,3.37,3.37,0,0,0,1.26-2.93,3.16,3.16,0,0,0-1.19-2.71,6.24,6.24,0,0,0-3.71-.89H339.2Z"/><path class="cls-1" d="M358.48,194.81a8.18,8.18,0,0,1,1.64.15l-.29,1.93a6.82,6.82,0,0,0-1.5-.19,3.67,3.67,0,0,0-2.86,1.35,5,5,0,0,0-1.18,3.37v7.37h-2.08V195.06h1.72l.24,2.54h.1a6.12,6.12,0,0,1,1.84-2.07A4.18,4.18,0,0,1,358.48,194.81Z"/><path class="cls-1" d="M368.49,209a6.31,6.31,0,0,1-4.81-1.85,7.2,7.2,0,0,1-1.76-5.15,8,8,0,0,1,1.64-5.28,5.43,5.43,0,0,1,4.39-1.95,5.18,5.18,0,0,1,4.09,1.7,6.51,6.51,0,0,1,1.5,4.48v1.31h-9.46A5.44,5.44,0,0,0,365.3,206a4.2,4.2,0,0,0,3.26,1.26,11.07,11.07,0,0,0,4.39-.93v1.85a11.08,11.08,0,0,1-2.09.69A12.26,12.26,0,0,1,368.49,209Zm-.57-12.49a3.37,3.37,0,0,0-2.63,1.08,5,5,0,0,0-1.16,3h7.18a4.52,4.52,0,0,0-.88-3A3.08,3.08,0,0,0,367.92,196.55Z"/><path class="cls-1" d="M386,205.05a3.44,3.44,0,0,1-1.43,2.95,6.69,6.69,0,0,1-4,1,8.66,8.66,0,0,1-4.26-.86v-1.93a10.3,10.3,0,0,0,2.12.79,9,9,0,0,0,2.19.29,5,5,0,0,0,2.5-.52,1.79,1.79,0,0,0,.18-3,10.8,10.8,0,0,0-2.71-1.35,14.29,14.29,0,0,1-2.72-1.24,3.87,3.87,0,0,1-1.21-1.21,3.21,3.21,0,0,1-.39-1.62,3.08,3.08,0,0,1,1.36-2.65,6.35,6.35,0,0,1,3.75-1,11,11,0,0,1,4.34.9l-.74,1.69a9.93,9.93,0,0,0-3.75-.85,4.29,4.29,0,0,0-2.23.46,1.44,1.44,0,0,0-.75,1.28,1.54,1.54,0,0,0,.28.94,2.73,2.73,0,0,0,.91.74,22.71,22.71,0,0,0,2.4,1,9.08,9.08,0,0,1,3.31,1.79A3.17,3.17,0,0,1,386,205.05Z"/><path class="cls-1" d="M398.19,205.05a3.44,3.44,0,0,1-1.43,2.95,6.67,6.67,0,0,1-4,1,8.69,8.69,0,0,1-4.26-.86v-1.93a10.52,10.52,0,0,0,2.12.79,9,9,0,0,0,2.19.29,5,5,0,0,0,2.51-.52,1.8,1.8,0,0,0,.18-3,11.11,11.11,0,0,0-2.72-1.35,14.93,14.93,0,0,1-2.72-1.24,3.73,3.73,0,0,1-1.2-1.21,3.32,3.32,0,0,1,1-4.27,6.34,6.34,0,0,1,3.74-1,11,11,0,0,1,4.34.9l-.74,1.69a9.93,9.93,0,0,0-3.75-.85,4.31,4.31,0,0,0-2.23.46,1.44,1.44,0,0,0-.75,1.28,1.61,1.61,0,0,0,.28.94,2.73,2.73,0,0,0,.91.74,22.21,22.21,0,0,0,2.41,1,8.93,8.93,0,0,1,3.3,1.79A3.17,3.17,0,0,1,398.19,205.05Z"/><path class="cls-1" d="M410.68,208.79h-2.13V190.47h10.21v1.89h-8.08v6.71h7.6V201h-7.6Z"/><path class="cls-1" d="M433.34,201.91a7.63,7.63,0,0,1-1.69,5.25A6,6,0,0,1,427,209a6.14,6.14,0,0,1-3.27-.86,5.72,5.72,0,0,1-2.2-2.48,8.64,8.64,0,0,1-.78-3.79,7.56,7.56,0,0,1,1.68-5.23,5.93,5.93,0,0,1,4.66-1.87,5.81,5.81,0,0,1,4.58,1.92A7.52,7.52,0,0,1,433.34,201.91Zm-10.47,0a6.52,6.52,0,0,0,1.06,4A3.64,3.64,0,0,0,427,207.3a3.68,3.68,0,0,0,3.1-1.37,6.47,6.47,0,0,0,1.06-4,6.38,6.38,0,0,0-1.06-4,3.72,3.72,0,0,0-3.12-1.36,3.64,3.64,0,0,0-3.08,1.35A6.38,6.38,0,0,0,422.87,201.91Z"/><path class="cls-1" d="M438.94,195.06V204a3.56,3.56,0,0,0,.76,2.5,3.09,3.09,0,0,0,2.4.83,3.9,3.9,0,0,0,3.15-1.18,5.93,5.93,0,0,0,1-3.84v-7.22h2.08v13.73h-1.72l-.3-1.84h-.11a4.14,4.14,0,0,1-1.78,1.55,5.94,5.94,0,0,1-2.59.54,5.21,5.21,0,0,1-3.75-1.19,5.06,5.06,0,0,1-1.25-3.81v-9Z"/><path class="cls-1" d="M462.13,208.79v-8.88a3.59,3.59,0,0,0-.76-2.51,3.12,3.12,0,0,0-2.39-.83,3.94,3.94,0,0,0-3.16,1.17,5.89,5.89,0,0,0-1,3.85v7.2h-2.08V195.06h1.69l.34,1.88h.1a4.16,4.16,0,0,1,1.79-1.57,5.7,5.7,0,0,1,2.57-.56A5.24,5.24,0,0,1,463,196a5.09,5.09,0,0,1,1.25,3.83v9Z"/><path class="cls-1" d="M477.84,207h-.12a4.86,4.86,0,0,1-4.31,2.09,5.1,5.1,0,0,1-4.19-1.84,8.1,8.1,0,0,1-1.5-5.24,8.25,8.25,0,0,1,1.51-5.27,5,5,0,0,1,4.18-1.88,5,5,0,0,1,4.29,2h.16l-.09-1,0-1v-5.59h2.08v19.5h-1.69Zm-4.16.35a3.8,3.8,0,0,0,3.09-1.16,5.91,5.91,0,0,0,1-3.74V202a6.86,6.86,0,0,0-1-4.16,3.68,3.68,0,0,0-3.1-1.25,3.18,3.18,0,0,0-2.8,1.42,7.07,7.07,0,0,0-1,4,6.8,6.8,0,0,0,1,4A3.29,3.29,0,0,0,473.68,207.3Z"/><path class="cls-1" d="M492.66,208.79l-.41-1.95h-.1a5.9,5.9,0,0,1-2,1.75,6.33,6.33,0,0,1-2.55.45,4.59,4.59,0,0,1-3.2-1,3.81,3.81,0,0,1-1.16-3c0-2.78,2.22-4.23,6.65-4.37l2.33-.07v-.85a3.5,3.5,0,0,0-.69-2.39,2.9,2.9,0,0,0-2.23-.77,9.06,9.06,0,0,0-3.88,1l-.64-1.59a9.39,9.39,0,0,1,2.22-.86,9.66,9.66,0,0,1,2.43-.32,5.26,5.26,0,0,1,3.64,1.09,4.55,4.55,0,0,1,1.18,3.5v9.37Zm-4.7-1.46a4.21,4.21,0,0,0,3.05-1.07,3.93,3.93,0,0,0,1.11-3V202l-2.08.09a7.46,7.46,0,0,0-3.58.77,2.31,2.31,0,0,0-1.09,2.12,2.16,2.16,0,0,0,.68,1.72A2.85,2.85,0,0,0,488,207.33Z"/><path class="cls-1" d="M502.92,207.33a6.18,6.18,0,0,0,1.07-.09,8.25,8.25,0,0,0,.81-.16v1.59a3.58,3.58,0,0,1-1,.27,7.62,7.62,0,0,1-1.19.1q-4,0-4-4.19v-8.17h-2v-1l2-.86.88-2.93h1.2v3.18h4v1.62h-4v8.08a2.79,2.79,0,0,0,.59,1.9A2.05,2.05,0,0,0,502.92,207.33Z"/><path class="cls-1" d="M507.37,191.34a1.4,1.4,0,0,1,.35-1.05,1.31,1.31,0,0,1,1.75,0,1.35,1.35,0,0,1,.36,1,1.38,1.38,0,0,1-.36,1,1.25,1.25,0,0,1-.87.35,1.22,1.22,0,0,1-.88-.35A1.42,1.42,0,0,1,507.37,191.34Zm2.26,17.45h-2.08V195.06h2.08Z"/><path class="cls-1" d="M525.89,201.91a7.58,7.58,0,0,1-1.69,5.25,6,6,0,0,1-4.67,1.88,6.14,6.14,0,0,1-3.27-.86,5.74,5.74,0,0,1-2.21-2.48,8.64,8.64,0,0,1-.77-3.79,7.55,7.55,0,0,1,1.67-5.23,6,6,0,0,1,4.67-1.87,5.82,5.82,0,0,1,4.58,1.92A7.52,7.52,0,0,1,525.89,201.91Zm-10.46,0a6.52,6.52,0,0,0,1.05,4,4.18,4.18,0,0,0,6.2,0,6.47,6.47,0,0,0,1.06-4,6.38,6.38,0,0,0-1.06-4,3.75,3.75,0,0,0-3.13-1.36,3.64,3.64,0,0,0-3.08,1.35A6.45,6.45,0,0,0,515.43,201.91Z"/><path class="cls-1" d="M538.94,208.79v-8.88a3.59,3.59,0,0,0-.77-2.51,3.09,3.09,0,0,0-2.39-.83,3.94,3.94,0,0,0-3.16,1.17,5.94,5.94,0,0,0-1,3.85v7.2h-2.08V195.06h1.69l.34,1.88h.1a4.22,4.22,0,0,1,1.79-1.57,5.73,5.73,0,0,1,2.57-.56,5.26,5.26,0,0,1,3.74,1.19,5.13,5.13,0,0,1,1.25,3.83v9Z"/><path class="cls-1" d="M552.27,208.79V190.47h2.13v16.39h8.09v1.93Z"/><path class="cls-1" d="M565.1,191.34a1.36,1.36,0,0,1,.36-1.05,1.21,1.21,0,0,1,.87-.33,1.22,1.22,0,0,1,.87.34,1.35,1.35,0,0,1,.36,1,1.38,1.38,0,0,1-.36,1,1.23,1.23,0,0,1-.87.35,1.18,1.18,0,0,1-.87-.35A1.38,1.38,0,0,1,565.1,191.34Zm2.26,17.45h-2.08V195.06h2.08Z"/><path class="cls-1" d="M578.16,194.83a5.12,5.12,0,0,1,4.21,1.85,9.92,9.92,0,0,1,0,10.49,5.06,5.06,0,0,1-4.19,1.87,6,6,0,0,1-2.45-.49,4.63,4.63,0,0,1-1.86-1.52h-.15l-.44,1.76h-1.49v-19.5h2.08V194c0,1.06,0,2-.1,2.86h.1A5,5,0,0,1,578.16,194.83Zm-.3,1.74a3.62,3.62,0,0,0-3.07,1.23,9.39,9.39,0,0,0,0,8.25,3.63,3.63,0,0,0,3.09,1.25,3.2,3.2,0,0,0,2.86-1.4,7.22,7.22,0,0,0,.94-4,7,7,0,0,0-.94-4A3.34,3.34,0,0,0,577.86,196.57Z"/><path class="cls-1" d="M593.76,194.81a8.11,8.11,0,0,1,1.64.15l-.28,1.93a6.83,6.83,0,0,0-1.51-.19,3.66,3.66,0,0,0-2.85,1.35,5,5,0,0,0-1.18,3.37v7.37H587.5V195.06h1.71l.24,2.54h.1a6.22,6.22,0,0,1,1.84-2.07A4.18,4.18,0,0,1,593.76,194.81Z"/><path class="cls-1" d="M606.42,208.79l-.41-1.95h-.1a5.9,5.9,0,0,1-2,1.75,6.33,6.33,0,0,1-2.55.45,4.59,4.59,0,0,1-3.2-1,3.81,3.81,0,0,1-1.16-3c0-2.78,2.21-4.23,6.65-4.37l2.33-.07v-.85a3.5,3.5,0,0,0-.69-2.39,2.9,2.9,0,0,0-2.23-.77,9.06,9.06,0,0,0-3.88,1l-.64-1.59a9.23,9.23,0,0,1,2.22-.86,9.66,9.66,0,0,1,2.43-.32,5.28,5.28,0,0,1,3.64,1.09,4.55,4.55,0,0,1,1.18,3.5v9.37Zm-4.7-1.46a4.21,4.21,0,0,0,3-1.07,3.93,3.93,0,0,0,1.11-3V202l-2.08.09a7.43,7.43,0,0,0-3.58.77,2.31,2.31,0,0,0-1.09,2.12,2.13,2.13,0,0,0,.68,1.72A2.83,2.83,0,0,0,601.72,207.33Z"/><path class="cls-1" d="M618.51,194.81a8.11,8.11,0,0,1,1.64.15l-.28,1.93a6.83,6.83,0,0,0-1.51-.19,3.66,3.66,0,0,0-2.85,1.35,5,5,0,0,0-1.18,3.37v7.37h-2.08V195.06H614l.24,2.54h.1a6.22,6.22,0,0,1,1.84-2.07A4.18,4.18,0,0,1,618.51,194.81Z"/><path class="cls-1" d="M620.54,195.06h2.23l3,7.83a30.38,30.38,0,0,1,1.23,3.87h.1c.11-.42.34-1.15.68-2.18s1.48-4.21,3.41-9.52h2.23l-5.91,15.64a7.72,7.72,0,0,1-2,3.29,4.39,4.39,0,0,1-2.87,1,7.92,7.92,0,0,1-1.88-.22v-1.66a7.25,7.25,0,0,0,1.54.15,3.18,3.18,0,0,0,3.06-2.41l.76-1.95Z"/><path class="cls-2" d="M394.89,135.75c2.3-5.55,5.43-10.44,6.88-15.6.45-1.58,1.3-2.26,3.41-2.13a32.14,32.14,0,0,0,12.11-1.34c10.94-2.85,17.68-11,17.15-20.67-.56-10.12-8-17.12-20.57-19.35-5.52-1-13.6-1.25-19.25-1.37-2.95-.06-3.85.55-3.83,3.14.13,23.8.08,47.61.08,71.42,0,8.82-.07,17.65.06,26.47,0,1.93-.5,2.56-2.95,2.5-6.14-.15-10.74-.14-16.89,0-2.44,0-3.34-.41-3.34-2.6q.11-58.66,0-117.34c0-1.21-.15-2.43,2-2.4,17.49.26,36.11-1.38,53.28,2.42,18.14,4,31.36,12.73,35.52,28.78,5.73,22.16-10.61,42.95-37.37,47.59A80,80,0,0,1,394.89,135.75Z"/><path class="cls-3" d="M538.73,160c-10.2.1-33.15.06-43.35,0-2.84,0-3.7.28-4-.82V58.58a2.16,2.16,0,0,0-2.15-2.15H472.1a2.16,2.16,0,0,0-2.16,2.15V176.65a2.16,2.16,0,0,0,2.16,2.15h17.19c10.79,0,34.31,0,45.09.06,2.06,0,3-.5,3.44-2.62A134.2,134.2,0,0,1,541.11,163C541.93,160.33,541.14,160,538.73,160Z"/><rect class="cls-3" x="547.81" y="98.79" width="20.55" height="80.01" rx="3.37" ry="3.37"/><path class="cls-3" d="M647.54,116.55a49.7,49.7,0,0,0-16.34-13.18,47.32,47.32,0,0,0-10.83-3.47c-7.66-1.49-11.85-1.46-20-.05,2.06,5.55,4.85,10.44,6.15,15.6.4,1.58,1.17,2.26,3,2.13,4.37-.32,4.87.16,7.29.93,9.7,3.07,15.8,11,15.33,20.67-.5,10.12-7.12,17.11-18.39,19.35a88.46,88.46,0,0,1-15,1.37c-2,0-2.94-.31-3.28-1.58V57.61a1.25,1.25,0,0,0-1.25-1.25H576.52a1.26,1.26,0,0,0-1.25,1.25v120a1.26,1.26,0,0,0,1.25,1.25h17.81c9.31,0,18.58-.29,27.69-2.55,16.22-4,28-12.72,31.75-28.78A37.52,37.52,0,0,0,647.54,116.55Z"/><rect class="cls-3" x="547.81" y="70.02" width="20.55" height="19.79" rx="3.37" ry="3.37"/><path class="cls-4" d="M362.38,56.62l0-.06h-8.1c-3.49,0-6.79,0-10.1-.06a5.36,5.36,0,0,0-5.48,4.12c-2.76,8.1-5.63,16.31-8.39,24.25l-10.47,32.85L301.3,76.57c-1.86-4.21-2.45-4.12-4.27,0l-18.58,41.17-2-5.87c-5.93-17-11.14-34.52-17.12-51.81a4.49,4.49,0,0,0-4.47-3.51c-3.55,0-7.09,0-10.82,0h-8.13l35.81,118h0c1.21,4,3,4.28,3.4,4.3H281c2,0,3-1.69,3.41-3a7.27,7.27,0,0,0,.35-1.35L299.16,124l14.41,50.55a7.27,7.27,0,0,0,.35,1.35c.45,1.26,1.43,3,3.41,3h5.87c.39,0,2.19-.32,3.4-4.3h0l35.81-118Z"/><path class="cls-3" d="M0,167.56V69.09a19.88,19.88,0,0,1,9.93-17.2L95.21,2.66a19.85,19.85,0,0,1,19.86,0l85.27,49.23a19.86,19.86,0,0,1,9.93,17.2v98.47a19.85,19.85,0,0,1-9.93,17.2L115.07,234a19.85,19.85,0,0,1-19.86,0L9.93,184.76A19.87,19.87,0,0,1,0,167.56Z"/><path class="cls-2" d="M210.27,162.64V168c0,7.56.24,10.91-9.72,16.67L115.4,233.8c-7.33,4.23-11.1,6.24-22.1-.91L10.29,185C-.27,179.28,0,175.09,0,166.63v-4l105.14,57.51Z"/><path class="cls-5" d="M76.16,97l-26,3.05a2.49,2.49,0,0,0,.29,5h.29l26-3a36,36,0,0,1,13.68,1,2.5,2.5,0,0,0,1.31-4.82A41.22,41.22,0,0,0,76.16,97Z"/><path class="cls-5" d="M91.73,109.6a41,41,0,0,0-15.57-1.17l-26,3a2.5,2.5,0,0,0,.29,5l.29,0,26-3a36.23,36.23,0,0,1,13.68,1,2.49,2.49,0,0,0,1.31-4.81Z"/><path class="cls-5" d="M91.73,121a41.22,41.22,0,0,0-15.57-1.16l-26,3.05a2.49,2.49,0,0,0,.29,5,1.46,1.46,0,0,0,.29,0l26-3a36.21,36.21,0,0,1,13.68,1A2.49,2.49,0,0,0,91.73,121Z"/><path class="cls-5" d="M107,125.85c.51-.14,1-.26,1.53-.38l-2.23-4.59-.61.16a2.49,2.49,0,1,0,1.31,4.81Z"/><path class="cls-5" d="M122.8,154.9H35.93V78.25h3.48v68.58a2.48,2.48,0,0,0,.84,1.87,2.51,2.51,0,0,0,2,.61l34.59-4.06a35.94,35.94,0,0,1,20.82,3.8,2.5,2.5,0,0,0,2.29,0A35.84,35.84,0,0,1,118,145l-2.43-5A41,41,0,0,0,101.25,143V110.47l-5-10.28V143a41.08,41.08,0,0,0-20.05-2.66L44.4,144V69.82L76.79,66q1.39-.17,2.79-.21L77.24,61c-.34,0-.69,0-1,.08l-34.6,4.07a2.49,2.49,0,0,0-2.2,2.47v5.66h-6a2.49,2.49,0,0,0-2.5,2.49V157.4a2.5,2.5,0,0,0,2.5,2.49h91.78Z"/><path class="cls-5" d="M76.16,85.55l-26,3a2.49,2.49,0,0,0,.29,5l.29,0,26-3a36.42,36.42,0,0,1,13.68,1,2.46,2.46,0,0,0,1.59-.1l-2.55-5.25A41.2,41.2,0,0,0,76.16,85.55Z"/><path class="cls-5" d="M50.19,77.15a2.5,2.5,0,0,0,.29,5l.29,0,26-3a36.4,36.4,0,0,1,9.33.13l-2.55-5.28a42.11,42.11,0,0,0-7.36.19Z"/><path class="cls-5" d="M141.56,105a16.31,16.31,0,0,0-1.65-12.53,16.07,16.07,0,0,0-1.41-2l14-13.92a34.73,34.73,0,0,1,4.5,6.15,35.9,35.9,0,0,1,4.84,18.21,1.84,1.84,0,0,0,1.83,1.85h0a1.85,1.85,0,0,0,1.85-1.83,40,40,0,0,0-.94-8.67l4.2-1.12a1.84,1.84,0,1,0-1-3.55l-4.18,1.12A38.08,38.08,0,0,0,161,82.39l3.75-2.15a1.84,1.84,0,1,0-1.85-3.18l-3.76,2.17a38.34,38.34,0,0,0-4.1-5.36l3.06-3.05a1.81,1.81,0,0,0,0-2.59,1.83,1.83,0,0,0-2.6,0l-3.06,3a39.87,39.87,0,0,0-5.38-4.08l2.17-3.73a1.85,1.85,0,0,0-.67-2.52,1.87,1.87,0,0,0-2.53.68l-2.16,3.74a40.88,40.88,0,0,0-6.26-2.55l1.13-4.2a1.84,1.84,0,0,0-3.56-1l-1.12,4.21a39.82,39.82,0,0,0-6.7-.9V56.62a1.85,1.85,0,0,0-3.69,0v4.32a39.38,39.38,0,0,0-6.71.86l-1.11-4.16a1.85,1.85,0,0,0-3.57,1l1.12,4.15a41,41,0,0,0-6.24,2.61L105,61.61a1.84,1.84,0,1,0-3.19,1.84L104,67.17a38.54,38.54,0,0,0-5.37,4.11l-3.06-3a1.83,1.83,0,0,0-2.6,0,1.81,1.81,0,0,0,0,2.59L96,73.88c-.5.54-1,1.11-1.44,1.68l1.79,3.69a35.43,35.43,0,0,1,2.26-2.77l14,13.89a16.49,16.49,0,0,0,8.66,26.26A16.6,16.6,0,0,0,141.56,105ZM101.23,73.87a35.3,35.3,0,0,1,6.17-4.49,36.44,36.44,0,0,1,42.46,4.49l-14,13.9a16.63,16.63,0,0,0-18.65-1.4,20.53,20.53,0,0,0-2,1.41Zm21,39.22a12.85,12.85,0,0,1,3.32-25.26,13.29,13.29,0,0,1,3.35.44,12.85,12.85,0,1,1-6.67,24.82Z"/><path class="cls-5" d="M125.59,44.44A58.2,58.2,0,0,0,86.69,59.3L89.43,65h0l.3.61A51.52,51.52,0,0,1,176,113.24a27.23,27.23,0,0,0-13.61-4.74v-2.31a1.85,1.85,0,0,0-3.69,0v2.3a27.15,27.15,0,0,0-10.15,2.69l-1.15-2a1.85,1.85,0,0,0-3.2,1.84l1.16,2a27,27,0,0,0-7.42,7.39l-2-1.15a1.84,1.84,0,1,0-1.85,3.18l2,1.14a27.44,27.44,0,0,0-2.72,10.12h-2.3a1.84,1.84,0,0,0,0,3.67h2.32a26.66,26.66,0,0,0,.51,3.74s0,0,0,.07,0,0,0,.06a26.92,26.92,0,0,0,3,7.87,24.24,24.24,0,0,0,2.06,3,52,52,0,0,1-6.64,1.33l1.68,3.46h0l1.37,2.82a58,58,0,0,0-9.83-115.3Zm27.77,95.26a8.31,8.31,0,0,1,14.41-8.3l.19.35c-.19.28-.39.55-.59.83-.34.47-.7.94-1.06,1.41-.54.69-1.09,1.36-1.67,2-.34.4-.69.8-1,1.19s-.89.94-1.35,1.41l-.85.83c-.78.75-1.59,1.47-2.42,2.18-.31.26-.62.53-.94.78s-.59.48-.89.7A8.23,8.23,0,0,1,153.36,139.7Zm7.17-27.61A23.63,23.63,0,0,1,175,117c0,.09,0,.18-.07.27-.21.69-.44,1.37-.67,2-.09.26-.17.52-.26.78-.23.62-.48,1.22-.73,1.83-.37.89-.76,1.79-1.18,2.67,0,.06,0,.12-.09.19-.58,1.2-1.22,2.37-1.9,3.53a12,12,0,0,0-13.9-3.94l-5.81-10A23.61,23.61,0,0,1,160.53,112.09Zm-13.3,4.13,5.81,10a12,12,0,0,0-4.45,10l-11.39,2.41A23.45,23.45,0,0,1,147.23,116.22Zm-9.25,26,11.38-2.4a11.38,11.38,0,0,0,4.54,5.62c-1.18.78-2.4,1.52-3.65,2.2a3.84,3.84,0,0,1-.4.21c-.61.33-1.21.64-1.83.93s-1,.45-1.45.67l-.95.43c-.89.37-1.79.71-2.7,1l-.13,0a23.16,23.16,0,0,1-2.65-3.65A23.8,23.8,0,0,1,138,142.21Z"/></g></g></svg>